M48
; DRILL file {KiCad 8.0.3} date 2026-01-12T15:33:50+0100
; FORMAT={-:-/ absolute / inch / decimal}
; #@! TF.CreationDate,2026-01-12T15:33:50+01:00
; #@! TF.GenerationSoftware,Kicad,Pcbnew,8.0.3
; #@! TF.FileFunction,Plated,1,2,PTH
FMAT,2
INCH
; #@! TA.AperFunction,Plated,PTH,ComponentDrill
T1C0.0354
%
G90
G05
T1
X4.5758Y-3.937
X4.5758Y-4.1929
X4.585Y-3.6811
X4.6457Y-4.4488
X4.6545Y-3.4252
X4.6758Y-3.937
X4.6758Y-4.1929
X4.685Y-3.6811
X4.7457Y-4.4488
X4.7545Y-3.4252
X4.812Y-3.1693
X4.8228Y-4.7047
X4.912Y-3.1693
X4.9228Y-4.7047
X4.9892Y-4.9606
X5.0089Y-2.9134
X5.0892Y-4.9606
X5.1089Y-2.9134
X5.1378Y-5.1378
X5.2559Y-5.0197
X5.2648Y-2.7756
X5.315Y-5.2165
X5.3559Y-5.0197
X5.3648Y-2.7756
X5.5207Y-2.6969
X5.5207Y-5.1969
X5.6207Y-2.6969
X5.6207Y-5.1969
X5.7766Y-2.6181
X5.7766Y-5.2165
X5.8766Y-2.6181
X5.8766Y-5.2165
X6.0325Y-2.6575
X6.0325Y-5.2362
X6.1325Y-2.6575
X6.1325Y-5.2362
X6.2884Y-2.7559
X6.2884Y-5.1575
X6.3884Y-2.7559
X6.3884Y-5.1575
X6.5443Y-2.815
X6.5443Y-5.0197
X6.6443Y-2.815
X6.6443Y-5.0197
X6.711Y-3.0315
X6.7913Y-2.815
X6.8002Y-4.8819
X6.811Y-3.0315
X6.9002Y-4.8819
X6.9276Y-4.6457
X6.938Y-3.1693
X7.0276Y-4.6457
X7.0364Y-3.4252
X7.038Y-3.1693
X7.1152Y-4.4488
X7.1348Y-3.6811
X7.1364Y-3.4252
X7.1441Y-3.937
X7.1638Y-4.1929
X7.2152Y-4.4488
X7.2348Y-3.6811
X7.2441Y-3.937
X7.2638Y-4.1929
M30
