%TF.GenerationSoftware,KiCad,Pcbnew,8.0.3*%
%TF.CreationDate,2026-01-26T15:52:45+01:00*%
%TF.ProjectId,ringLED,72696e67-4c45-4442-9e6b-696361645f70,rev?*%
%TF.SameCoordinates,Original*%
%TF.FileFunction,Copper,L1,Top*%
%TF.FilePolarity,Positive*%
%FSLAX46Y46*%
G04 Gerber Fmt 4.6, Leading zero omitted, Abs format (unit mm)*
G04 Created by KiCad (PCBNEW 8.0.3) date 2026-01-26 15:52:45*
%MOMM*%
%LPD*%
G01*
G04 APERTURE LIST*
%TA.AperFunction,ComponentPad*%
%ADD10R,1.800000X1.800000*%
%TD*%
%TA.AperFunction,ComponentPad*%
%ADD11C,1.800000*%
%TD*%
%TA.AperFunction,Conductor*%
%ADD12C,0.200000*%
%TD*%
G04 APERTURE END LIST*
D10*
%TO.P,U27,1*%
%TO.N,Net-(U21-Pad2)*%
X172725000Y-124000000D03*
D11*
%TO.P,U27,2*%
%TO.N,Net-(U26-Pad1)*%
X175265000Y-124000000D03*
%TD*%
D10*
%TO.P,U9,1*%
%TO.N,Net-(U7-Pad2)*%
X127225000Y-74000000D03*
D11*
%TO.P,U9,2*%
%TO.N,Net-(U10-Pad1)*%
X129765000Y-74000000D03*
%TD*%
D10*
%TO.P,U4,1*%
%TO.N,Net-(U3-Pad2)*%
X116225000Y-106500000D03*
D11*
%TO.P,U4,2*%
%TO.N,Net-(U4-Pad2)*%
X118765000Y-106500000D03*
%TD*%
D10*
%TO.P,,1*%
%TO.N,Net-(R1-Pad1)*%
X130500000Y-130500000D03*
%TD*%
%TO.P,U6,1*%
%TO.N,Net-(U5-Pad2)*%
X116460000Y-93500000D03*
D11*
%TO.P,U6,2*%
%TO.N,Net-(U6-Pad2)*%
X119000000Y-93500000D03*
%TD*%
D10*
%TO.P,U29,1*%
%TO.N,Net-(U28-Pad2)*%
X176225000Y-80500000D03*
D11*
%TO.P,U29,2*%
%TO.N,Net-(U29-Pad2)*%
X178765000Y-80500000D03*
%TD*%
D10*
%TO.P,,1*%
%TO.N,Net-(R2-Pad1)*%
X135000000Y-132500000D03*
%TD*%
%TO.P,U3,1*%
%TO.N,Net-(U2-Pad2)*%
X118000000Y-113000000D03*
D11*
%TO.P,U3,2*%
%TO.N,Net-(U3-Pad2)*%
X120540000Y-113000000D03*
%TD*%
%TO.P,,2*%
%TO.N,GND*%
X172500000Y-71500000D03*
%TD*%
D10*
%TO.P,U14,1*%
%TO.N,Net-(U13-Pad2)*%
X159725000Y-70000000D03*
D11*
%TO.P,U14,2*%
%TO.N,Net-(U14-Pad2)*%
X162265000Y-70000000D03*
%TD*%
D10*
%TO.P,U25,1*%
%TO.N,Net-(U25-Pad1)*%
X180725000Y-113000000D03*
D11*
%TO.P,U25,2*%
%TO.N,Net-(U24-Pad1)*%
X183265000Y-113000000D03*
%TD*%
D10*
%TO.P,U24,1*%
%TO.N,Net-(U24-Pad1)*%
X181960000Y-106500000D03*
D11*
%TO.P,U24,2*%
%TO.N,Net-(U23-Pad1)*%
X184500000Y-106500000D03*
%TD*%
D10*
%TO.P,U22,1*%
%TO.N,Net-(U22-Pad1)*%
X181225000Y-93500000D03*
D11*
%TO.P,U22,2*%
%TO.N,Net-(U22-Pad2)*%
X183765000Y-93500000D03*
%TD*%
D10*
%TO.P,U18,1*%
%TO.N,Net-(U17-Pad2)*%
X146725000Y-132500000D03*
D11*
%TO.P,U18,2*%
%TO.N,Net-(U18-Pad2)*%
X149265000Y-132500000D03*
%TD*%
D10*
%TO.P,U19,1*%
%TO.N,Net-(U18-Pad2)*%
X153225000Y-133000000D03*
D11*
%TO.P,U19,2*%
%TO.N,Net-(U19-Pad2)*%
X155765000Y-133000000D03*
%TD*%
D10*
%TO.P,U11,1*%
%TO.N,Net-(U10-Pad2)*%
X140225000Y-68500000D03*
D11*
%TO.P,U11,2*%
%TO.N,Net-(U11-Pad2)*%
X142765000Y-68500000D03*
%TD*%
D10*
%TO.P,U16,1*%
%TO.N,Net-(R2-Pad1)*%
X133500000Y-127500000D03*
D11*
%TO.P,U16,2*%
%TO.N,Net-(U16-Pad2)*%
X136040000Y-127500000D03*
%TD*%
D10*
%TO.P,U30,1*%
%TO.N,Net-(U29-Pad2)*%
X170460000Y-77000000D03*
D11*
%TO.P,U30,2*%
%TO.N,GND*%
X173000000Y-77000000D03*
%TD*%
D10*
%TO.P,U13,1*%
%TO.N,Net-(U12-Pad2)*%
X153225000Y-67500000D03*
D11*
%TO.P,U13,2*%
%TO.N,Net-(U13-Pad2)*%
X155765000Y-67500000D03*
%TD*%
D10*
%TO.P,U21,1*%
%TO.N,Net-(U20-Pad2)*%
X166225000Y-127500000D03*
D11*
%TO.P,U21,2*%
%TO.N,Net-(U21-Pad2)*%
X168765000Y-127500000D03*
%TD*%
D10*
%TO.P,U28,1*%
%TO.N,Net-(U22-Pad2)*%
X178725000Y-87000000D03*
D11*
%TO.P,U28,2*%
%TO.N,Net-(U28-Pad2)*%
X181265000Y-87000000D03*
%TD*%
D10*
%TO.P,U26,1*%
%TO.N,Net-(U26-Pad1)*%
X175960000Y-118000000D03*
D11*
%TO.P,U26,2*%
%TO.N,Net-(U25-Pad1)*%
X178500000Y-118000000D03*
%TD*%
D10*
%TO.P,U2,1*%
%TO.N,Net-(U1-Pad2)*%
X122500000Y-119500000D03*
D11*
%TO.P,U2,2*%
%TO.N,Net-(U2-Pad2)*%
X125040000Y-119500000D03*
%TD*%
D10*
%TO.P,U5,1*%
%TO.N,Net-(U4-Pad2)*%
X116225000Y-100000000D03*
D11*
%TO.P,U5,2*%
%TO.N,Net-(U5-Pad2)*%
X118765000Y-100000000D03*
%TD*%
D10*
%TO.P,U10,1*%
%TO.N,Net-(U10-Pad1)*%
X133725000Y-70500000D03*
D11*
%TO.P,U10,2*%
%TO.N,Net-(U10-Pad2)*%
X136265000Y-70500000D03*
%TD*%
D10*
%TO.P,U23,1*%
%TO.N,Net-(U23-Pad1)*%
X181460000Y-100000000D03*
D11*
%TO.P,U23,2*%
%TO.N,Net-(U22-Pad1)*%
X184000000Y-100000000D03*
%TD*%
D10*
%TO.P,U1,1*%
%TO.N,Net-(R1-Pad1)*%
X126725000Y-126000000D03*
D11*
%TO.P,U1,2*%
%TO.N,Net-(U1-Pad2)*%
X129265000Y-126000000D03*
%TD*%
D10*
%TO.P,U17,1*%
%TO.N,Net-(U16-Pad2)*%
X140225000Y-132000000D03*
D11*
%TO.P,U17,2*%
%TO.N,Net-(U17-Pad2)*%
X142765000Y-132000000D03*
%TD*%
D10*
%TO.P,U15,1*%
%TO.N,Net-(U14-Pad2)*%
X166225000Y-71500000D03*
D11*
%TO.P,U15,2*%
%TO.N,GND*%
X168765000Y-71500000D03*
%TD*%
D10*
%TO.P,U20,1*%
%TO.N,Net-(U19-Pad2)*%
X159725000Y-131000000D03*
D11*
%TO.P,U20,2*%
%TO.N,Net-(U20-Pad2)*%
X162265000Y-131000000D03*
%TD*%
D10*
%TO.P,U7,1*%
%TO.N,Net-(U7-Pad1)*%
X122225000Y-80500000D03*
D11*
%TO.P,U7,2*%
%TO.N,Net-(U7-Pad2)*%
X124765000Y-80500000D03*
%TD*%
D10*
%TO.P,U12,1*%
%TO.N,Net-(U11-Pad2)*%
X146725000Y-66500000D03*
D11*
%TO.P,U12,2*%
%TO.N,Net-(U12-Pad2)*%
X149265000Y-66500000D03*
%TD*%
D10*
%TO.P,U8,1*%
%TO.N,Net-(U6-Pad2)*%
X118225000Y-87000000D03*
D11*
%TO.P,U8,2*%
%TO.N,Net-(U7-Pad1)*%
X120765000Y-87000000D03*
%TD*%
D12*
%TO.N,Net-(R1-Pad1)*%
X126725000Y-126000000D02*
X126725000Y-126725000D01*
X126725000Y-126725000D02*
X130500000Y-130500000D01*
%TO.N,Net-(R2-Pad1)*%
X133500000Y-131000000D02*
X135000000Y-132500000D01*
X133500000Y-127500000D02*
X133500000Y-131000000D01*
%TO.N,Net-(U1-Pad2)*%
X129265000Y-126000000D02*
X129265000Y-123265000D01*
X129000000Y-123000000D02*
X123000000Y-123000000D01*
X129265000Y-123265000D02*
X129000000Y-123000000D01*
X123000000Y-123000000D02*
X122500000Y-122500000D01*
X122500000Y-122500000D02*
X122500000Y-119500000D01*
%TO.N,Net-(U2-Pad2)*%
X125040000Y-119500000D02*
X125040000Y-117540000D01*
X119000000Y-117000000D02*
X118000000Y-116000000D01*
X124500000Y-117000000D02*
X119000000Y-117000000D01*
X125040000Y-117540000D02*
X124500000Y-117000000D01*
X118000000Y-116000000D02*
X118000000Y-113000000D01*
%TO.N,Net-(U3-Pad2)*%
X120540000Y-113000000D02*
X120540000Y-111040000D01*
X117000000Y-110500000D02*
X116225000Y-109725000D01*
X120000000Y-110500000D02*
X117000000Y-110500000D01*
X120540000Y-111040000D02*
X120000000Y-110500000D01*
X116225000Y-109725000D02*
X116225000Y-106500000D01*
%TO.N,Net-(U4-Pad2)*%
X117000000Y-104500000D02*
X116225000Y-103725000D01*
X118765000Y-104765000D02*
X118500000Y-104500000D01*
X116225000Y-103725000D02*
X116225000Y-100000000D01*
X118500000Y-104500000D02*
X117000000Y-104500000D01*
X118765000Y-106500000D02*
X118765000Y-104765000D01*
%TO.N,Net-(U5-Pad2)*%
X118765000Y-98265000D02*
X118500000Y-98000000D01*
X118765000Y-100000000D02*
X118765000Y-98265000D01*
X117000000Y-98000000D02*
X116460000Y-97460000D01*
X116460000Y-97460000D02*
X116460000Y-93500000D01*
X118500000Y-98000000D02*
X117000000Y-98000000D01*
%TO.N,Net-(U6-Pad2)*%
X119000000Y-91000000D02*
X118225000Y-90225000D01*
X118225000Y-90225000D02*
X118225000Y-87000000D01*
X119000000Y-93500000D02*
X119000000Y-91000000D01*
%TO.N,Net-(U7-Pad1)*%
X120765000Y-81960000D02*
X122225000Y-80500000D01*
X120765000Y-87000000D02*
X120765000Y-81960000D01*
%TO.N,Net-(U7-Pad2)*%
X125500000Y-74000000D02*
X127225000Y-74000000D01*
X124765000Y-74735000D02*
X125500000Y-74000000D01*
X124765000Y-80500000D02*
X124765000Y-74735000D01*
%TO.N,Net-(U10-Pad1)*%
X133725000Y-73275000D02*
X133725000Y-70500000D01*
X133000000Y-74000000D02*
X133725000Y-73275000D01*
X129765000Y-74000000D02*
X133000000Y-74000000D01*
%TO.N,Net-(U10-Pad2)*%
X138225000Y-70500000D02*
X140225000Y-68500000D01*
X136265000Y-70500000D02*
X138225000Y-70500000D01*
%TO.N,Net-(U11-Pad2)*%
X144725000Y-68500000D02*
X146725000Y-66500000D01*
X142765000Y-68500000D02*
X144725000Y-68500000D01*
%TO.N,Net-(U12-Pad2)*%
X152225000Y-66500000D02*
X153225000Y-67500000D01*
X149265000Y-66500000D02*
X152225000Y-66500000D01*
%TO.N,Net-(U13-Pad2)*%
X155765000Y-67500000D02*
X158265000Y-70000000D01*
X158265000Y-70000000D02*
X159725000Y-70000000D01*
%TO.N,Net-(U14-Pad2)*%
X164725000Y-70000000D02*
X166225000Y-71500000D01*
X162265000Y-70000000D02*
X164725000Y-70000000D01*
%TO.N,GND*%
X168765000Y-71500000D02*
X172500000Y-71500000D01*
X173000000Y-72000000D02*
X172500000Y-71500000D01*
X173000000Y-77000000D02*
X173000000Y-72000000D01*
%TO.N,Net-(U16-Pad2)*%
X139500000Y-127500000D02*
X140225000Y-128225000D01*
X140225000Y-128225000D02*
X140225000Y-132000000D01*
X136040000Y-127500000D02*
X139500000Y-127500000D01*
%TO.N,Net-(U17-Pad2)*%
X146225000Y-132000000D02*
X146725000Y-132500000D01*
X142765000Y-132000000D02*
X146225000Y-132000000D01*
%TO.N,Net-(U18-Pad2)*%
X152725000Y-132500000D02*
X153225000Y-133000000D01*
X149265000Y-132500000D02*
X152725000Y-132500000D01*
%TO.N,Net-(U19-Pad2)*%
X159000000Y-133000000D02*
X159725000Y-132275000D01*
X155765000Y-133000000D02*
X159000000Y-133000000D01*
X159725000Y-132275000D02*
X159725000Y-131000000D01*
%TO.N,Net-(U20-Pad2)*%
X162265000Y-131000000D02*
X165500000Y-131000000D01*
X165500000Y-131000000D02*
X166225000Y-130275000D01*
X166225000Y-130275000D02*
X166225000Y-127500000D01*
%TO.N,Net-(U21-Pad2)*%
X172725000Y-126775000D02*
X172725000Y-124000000D01*
X172000000Y-127500000D02*
X172725000Y-126775000D01*
X168765000Y-127500000D02*
X172000000Y-127500000D01*
%TO.N,Net-(U22-Pad2)*%
X183765000Y-91765000D02*
X183500000Y-91500000D01*
X178725000Y-90725000D02*
X178725000Y-87000000D01*
X183765000Y-93500000D02*
X183765000Y-91765000D01*
X179500000Y-91500000D02*
X178725000Y-90725000D01*
X183500000Y-91500000D02*
X179500000Y-91500000D01*
%TO.N,Net-(U22-Pad1)*%
X182000000Y-97500000D02*
X181225000Y-96725000D01*
X183500000Y-97500000D02*
X182000000Y-97500000D01*
X184000000Y-98000000D02*
X183500000Y-97500000D01*
X184000000Y-100000000D02*
X184000000Y-98000000D01*
X181225000Y-96725000D02*
X181225000Y-93500000D01*
%TO.N,Net-(U23-Pad1)*%
X182000000Y-103500000D02*
X181460000Y-102960000D01*
X181460000Y-102960000D02*
X181460000Y-100000000D01*
X184500000Y-104500000D02*
X183500000Y-103500000D01*
X183500000Y-103500000D02*
X182000000Y-103500000D01*
X184500000Y-106500000D02*
X184500000Y-104500000D01*
%TO.N,Net-(U24-Pad1)*%
X181960000Y-106500000D02*
X181960000Y-108960000D01*
X183265000Y-110265000D02*
X183265000Y-113000000D01*
X181960000Y-108960000D02*
X183265000Y-110265000D01*
%TO.N,Net-(U25-Pad1)*%
X178500000Y-114000000D02*
X179500000Y-113000000D01*
X179500000Y-113000000D02*
X180725000Y-113000000D01*
X178500000Y-118000000D02*
X178500000Y-114000000D01*
%TO.N,Net-(U26-Pad1)*%
X175265000Y-118695000D02*
X175960000Y-118000000D01*
X175265000Y-124000000D02*
X175265000Y-118695000D01*
%TO.N,Net-(U28-Pad2)*%
X180500000Y-84500000D02*
X177000000Y-84500000D01*
X181265000Y-85265000D02*
X180500000Y-84500000D01*
X177000000Y-84500000D02*
X176225000Y-83725000D01*
X181265000Y-87000000D02*
X181265000Y-85265000D01*
X176225000Y-83725000D02*
X176225000Y-80500000D01*
%TO.N,Net-(U29-Pad2)*%
X178000000Y-78500000D02*
X178765000Y-79265000D01*
X171500000Y-78500000D02*
X178000000Y-78500000D01*
X178765000Y-79265000D02*
X178765000Y-80500000D01*
X170460000Y-77460000D02*
X171500000Y-78500000D01*
X170460000Y-77000000D02*
X170460000Y-77460000D01*
%TD*%
%TA.AperFunction,Conductor*%
%TO.N,GND*%
G36*
X150171478Y-62500016D02*
G01*
X151225031Y-62517256D01*
X151229035Y-62517387D01*
X152450813Y-62577409D01*
X152454819Y-62577672D01*
X153673872Y-62677629D01*
X153677904Y-62678025D01*
X154893142Y-62817828D01*
X154897069Y-62818345D01*
X156107075Y-62997832D01*
X156110980Y-62998476D01*
X157314470Y-63217460D01*
X157318397Y-63218241D01*
X158514022Y-63476471D01*
X158517921Y-63477379D01*
X159704481Y-63774598D01*
X159708368Y-63775639D01*
X160884560Y-64111519D01*
X160888396Y-64112683D01*
X162052982Y-64486870D01*
X162056792Y-64488164D01*
X163208466Y-64900240D01*
X163212203Y-64901647D01*
X164279803Y-65323531D01*
X164349811Y-65351196D01*
X164353556Y-65352747D01*
X165475831Y-65839271D01*
X165479440Y-65840905D01*
X166585250Y-66363915D01*
X166588860Y-66365696D01*
X167676902Y-66924573D01*
X167680449Y-66926469D01*
X168749641Y-67520657D01*
X168753124Y-67522668D01*
X169546974Y-67998484D01*
X169802257Y-68151495D01*
X169805699Y-68153635D01*
X170833772Y-68816500D01*
X170837108Y-68818730D01*
X171834518Y-69509047D01*
X171842848Y-69514812D01*
X171846134Y-69517166D01*
X172007512Y-69636852D01*
X172352011Y-69892350D01*
X172394131Y-69948097D01*
X172399427Y-70017765D01*
X172366216Y-70079237D01*
X172305042Y-70112995D01*
X172298554Y-70114257D01*
X172155138Y-70138188D01*
X171935706Y-70213520D01*
X171935697Y-70213523D01*
X171731650Y-70323949D01*
X171701200Y-70347647D01*
X172411414Y-71057861D01*
X172326306Y-71080667D01*
X172223694Y-71139910D01*
X172139910Y-71223694D01*
X172080667Y-71326306D01*
X172057861Y-71411415D01*
X171348811Y-70702365D01*
X171264516Y-70831390D01*
X171171317Y-71043864D01*
X171114361Y-71268781D01*
X171095202Y-71499992D01*
X171095202Y-71500005D01*
X171114361Y-71731218D01*
X171171317Y-71956135D01*
X171264515Y-72168606D01*
X171348812Y-72297633D01*
X172057861Y-71588584D01*
X172080667Y-71673694D01*
X172139910Y-71776306D01*
X172223694Y-71860090D01*
X172326306Y-71919333D01*
X172411414Y-71942138D01*
X171701201Y-72652351D01*
X171731649Y-72676050D01*
X171935697Y-72786476D01*
X171935706Y-72786479D01*
X172155139Y-72861811D01*
X172383993Y-72900000D01*
X172616007Y-72900000D01*
X172844860Y-72861811D01*
X173064293Y-72786479D01*
X173064301Y-72786476D01*
X173268355Y-72676047D01*
X173298797Y-72652351D01*
X173298798Y-72652350D01*
X172588585Y-71942137D01*
X172673694Y-71919333D01*
X172776306Y-71860090D01*
X172860090Y-71776306D01*
X172919333Y-71673694D01*
X172942138Y-71588585D01*
X173651186Y-72297633D01*
X173735482Y-72168611D01*
X173828682Y-71956135D01*
X173885638Y-71731218D01*
X173904798Y-71500005D01*
X173904798Y-71499992D01*
X173894438Y-71374978D01*
X173908518Y-71306541D01*
X173957363Y-71256582D01*
X174025464Y-71240961D01*
X174091200Y-71264638D01*
X174098231Y-71270179D01*
X174472337Y-71587584D01*
X174725763Y-71802600D01*
X174728813Y-71805275D01*
X174942738Y-71999166D01*
X174952144Y-72008663D01*
X178494871Y-75994230D01*
X178504373Y-76006361D01*
X183715187Y-83585727D01*
X183725101Y-83602960D01*
X183969104Y-84118861D01*
X184010091Y-84205520D01*
X184159074Y-84520516D01*
X184160729Y-84524169D01*
X184219128Y-84658878D01*
X184219128Y-84658879D01*
X184222995Y-84668987D01*
X185998135Y-89994407D01*
X186001323Y-90005736D01*
X187184249Y-95131747D01*
X187186612Y-95145458D01*
X187321973Y-96322092D01*
X187322370Y-96326131D01*
X187422325Y-97545158D01*
X187422591Y-97549207D01*
X187482611Y-98770939D01*
X187482743Y-98774994D01*
X187499983Y-99828521D01*
X187500000Y-99830550D01*
X187500000Y-100169448D01*
X187499983Y-100171477D01*
X187482743Y-101225005D01*
X187482611Y-101229060D01*
X187422591Y-102450792D01*
X187422325Y-102454841D01*
X187322370Y-103673868D01*
X187321973Y-103677907D01*
X187182177Y-104893095D01*
X187181647Y-104897117D01*
X187002175Y-106107025D01*
X187001514Y-106111029D01*
X186782544Y-107314444D01*
X186781752Y-107318424D01*
X186523534Y-108513995D01*
X186522613Y-108517947D01*
X186225405Y-109704465D01*
X186224355Y-109708384D01*
X185888487Y-110884536D01*
X185887309Y-110888419D01*
X185513134Y-112052966D01*
X185511829Y-112056808D01*
X185099770Y-113208435D01*
X185098341Y-113212233D01*
X184648803Y-114349811D01*
X184647250Y-114353560D01*
X184160748Y-115475787D01*
X184159074Y-115479483D01*
X183636091Y-116585235D01*
X183634296Y-116588874D01*
X183075434Y-117676886D01*
X183073521Y-117680465D01*
X182479351Y-118749625D01*
X182477322Y-118753139D01*
X181848504Y-119802257D01*
X181846362Y-119805703D01*
X181319414Y-120622974D01*
X181315481Y-120628712D01*
X179293021Y-123409594D01*
X179289866Y-123413747D01*
X178991301Y-123789937D01*
X178988726Y-123793074D01*
X178197399Y-124725763D01*
X178194724Y-124728813D01*
X177456783Y-125543004D01*
X177452586Y-125547412D01*
X175547412Y-127452586D01*
X175543004Y-127456783D01*
X174728813Y-128194724D01*
X174725763Y-128197399D01*
X173793060Y-128988738D01*
X173789922Y-128991313D01*
X173731549Y-129037640D01*
X173725573Y-129042097D01*
X169507482Y-131994762D01*
X169491827Y-132004086D01*
X163651518Y-134924240D01*
X163641636Y-134928653D01*
X163212233Y-135098341D01*
X163208435Y-135099770D01*
X162056808Y-135511829D01*
X162052966Y-135513134D01*
X161063556Y-135831035D01*
X161053507Y-135833803D01*
X156009952Y-136997702D01*
X155989804Y-137000637D01*
X148501967Y-137468626D01*
X148488148Y-137468718D01*
X147549210Y-137422591D01*
X147545161Y-137422325D01*
X147340258Y-137405524D01*
X147332855Y-137404693D01*
X142117995Y-136659713D01*
X142109353Y-136658164D01*
X141486004Y-136523534D01*
X141482052Y-136522613D01*
X140295534Y-136225405D01*
X140291615Y-136224355D01*
X139115463Y-135888487D01*
X139111580Y-135887309D01*
X137947033Y-135513134D01*
X137943191Y-135511829D01*
X136791564Y-135099770D01*
X136787766Y-135098341D01*
X135650188Y-134648803D01*
X135646439Y-134647250D01*
X134747494Y-134257544D01*
X134524197Y-134160741D01*
X134520527Y-134159079D01*
X134506245Y-134152324D01*
X134472986Y-134136593D01*
X134420800Y-134090134D01*
X134402016Y-134022837D01*
X134422597Y-133956067D01*
X134476010Y-133911024D01*
X134526001Y-133900499D01*
X135947872Y-133900499D01*
X136007483Y-133894091D01*
X136142331Y-133843796D01*
X136257546Y-133757546D01*
X136343796Y-133642331D01*
X136394091Y-133507483D01*
X136400500Y-133447873D01*
X136400499Y-131552128D01*
X136394091Y-131492517D01*
X136392253Y-131487590D01*
X136343797Y-131357671D01*
X136343793Y-131357664D01*
X136257547Y-131242455D01*
X136257544Y-131242452D01*
X136142335Y-131156206D01*
X136142328Y-131156202D01*
X136007482Y-131105908D01*
X136007483Y-131105908D01*
X135947883Y-131099501D01*
X135947881Y-131099500D01*
X135947873Y-131099500D01*
X135947865Y-131099500D01*
X134500097Y-131099500D01*
X134433058Y-131079815D01*
X134412416Y-131063181D01*
X134136819Y-130787584D01*
X134103334Y-130726261D01*
X134100500Y-130699903D01*
X134100500Y-129024499D01*
X134120185Y-128957460D01*
X134172989Y-128911705D01*
X134224500Y-128900499D01*
X134447871Y-128900499D01*
X134447872Y-128900499D01*
X134507483Y-128894091D01*
X134642331Y-128843796D01*
X134757546Y-128757546D01*
X134843796Y-128642331D01*
X134872455Y-128565493D01*
X134914326Y-128509559D01*
X134979790Y-128485141D01*
X135048063Y-128499992D01*
X135079866Y-128524843D01*
X135087302Y-128532920D01*
X135088215Y-128533912D01*
X135088222Y-128533918D01*
X135271365Y-128676464D01*
X135271371Y-128676468D01*
X135271374Y-128676470D01*
X135475497Y-128786936D01*
X135589487Y-128826068D01*
X135695015Y-128862297D01*
X135695017Y-128862297D01*
X135695019Y-128862298D01*
X135923951Y-128900500D01*
X135923952Y-128900500D01*
X136156048Y-128900500D01*
X136156049Y-128900500D01*
X136384981Y-128862298D01*
X136604503Y-128786936D01*
X136808626Y-128676470D01*
X136991784Y-128533913D01*
X137148979Y-128363153D01*
X137275924Y-128168849D01*
X137275926Y-128168843D01*
X137277747Y-128165481D01*
X137326967Y-128115891D01*
X137386801Y-128100500D01*
X139199903Y-128100500D01*
X139266942Y-128120185D01*
X139287584Y-128136819D01*
X139588181Y-128437416D01*
X139621666Y-128498739D01*
X139624500Y-128525097D01*
X139624500Y-130475500D01*
X139604815Y-130542539D01*
X139552011Y-130588294D01*
X139500501Y-130599500D01*
X139277130Y-130599500D01*
X139277123Y-130599501D01*
X139217516Y-130605908D01*
X139082671Y-130656202D01*
X139082664Y-130656206D01*
X138967455Y-130742452D01*
X138967452Y-130742455D01*
X138881206Y-130857664D01*
X138881202Y-130857671D01*
X138830908Y-130992517D01*
X138824501Y-131052116D01*
X138824500Y-131052135D01*
X138824500Y-132947870D01*
X138824501Y-132947876D01*
X138830908Y-133007483D01*
X138881202Y-133142328D01*
X138881206Y-133142335D01*
X138967452Y-133257544D01*
X138967455Y-133257547D01*
X139082664Y-133343793D01*
X139082671Y-133343797D01*
X139217517Y-133394091D01*
X139217516Y-133394091D01*
X139224444Y-133394835D01*
X139277127Y-133400500D01*
X141172872Y-133400499D01*
X141232483Y-133394091D01*
X141367331Y-133343796D01*
X141482546Y-133257546D01*
X141568796Y-133142331D01*
X141577056Y-133120185D01*
X141597455Y-133065493D01*
X141639326Y-133009559D01*
X141704790Y-132985141D01*
X141773063Y-132999992D01*
X141804866Y-133024843D01*
X141812302Y-133032920D01*
X141813215Y-133033912D01*
X141813222Y-133033918D01*
X141996365Y-133176464D01*
X141996371Y-133176468D01*
X141996374Y-133176470D01*
X142200497Y-133286936D01*
X142286428Y-133316436D01*
X142420015Y-133362297D01*
X142420017Y-133362297D01*
X142420019Y-133362298D01*
X142648951Y-133400500D01*
X142648952Y-133400500D01*
X142881048Y-133400500D01*
X142881049Y-133400500D01*
X143109981Y-133362298D01*
X143329503Y-133286936D01*
X143533626Y-133176470D01*
X143538099Y-133172989D01*
X143611458Y-133115891D01*
X143716784Y-133033913D01*
X143873979Y-132863153D01*
X144000924Y-132668849D01*
X144000926Y-132668843D01*
X144002747Y-132665481D01*
X144051967Y-132615891D01*
X144111801Y-132600500D01*
X145200501Y-132600500D01*
X145267540Y-132620185D01*
X145313295Y-132672989D01*
X145324501Y-132724500D01*
X145324501Y-133447876D01*
X145330908Y-133507483D01*
X145381202Y-133642328D01*
X145381206Y-133642335D01*
X145467452Y-133757544D01*
X145467455Y-133757547D01*
X145582664Y-133843793D01*
X145582671Y-133843797D01*
X145717517Y-133894091D01*
X145717516Y-133894091D01*
X145724444Y-133894835D01*
X145777127Y-133900500D01*
X147672872Y-133900499D01*
X147732483Y-133894091D01*
X147867331Y-133843796D01*
X147982546Y-133757546D01*
X148068796Y-133642331D01*
X148073501Y-133629717D01*
X148097455Y-133565493D01*
X148139326Y-133509559D01*
X148204790Y-133485141D01*
X148273063Y-133499992D01*
X148304866Y-133524843D01*
X148310202Y-133530639D01*
X148313215Y-133533912D01*
X148313222Y-133533918D01*
X148496365Y-133676464D01*
X148496371Y-133676468D01*
X148496374Y-133676470D01*
X148700497Y-133786936D01*
X148786428Y-133816436D01*
X148920015Y-133862297D01*
X148920017Y-133862297D01*
X148920019Y-133862298D01*
X149148951Y-133900500D01*
X149148952Y-133900500D01*
X149381048Y-133900500D01*
X149381049Y-133900500D01*
X149609981Y-133862298D01*
X149829503Y-133786936D01*
X150033626Y-133676470D01*
X150216784Y-133533913D01*
X150373979Y-133363153D01*
X150500924Y-133168849D01*
X150500926Y-133168843D01*
X150502747Y-133165481D01*
X150551967Y-133115891D01*
X150611801Y-133100500D01*
X151700501Y-133100500D01*
X151767540Y-133120185D01*
X151813295Y-133172989D01*
X151824501Y-133224500D01*
X151824501Y-133947876D01*
X151830908Y-134007483D01*
X151881202Y-134142328D01*
X151881206Y-134142335D01*
X151967452Y-134257544D01*
X151967455Y-134257547D01*
X152082664Y-134343793D01*
X152082671Y-134343797D01*
X152217517Y-134394091D01*
X152217516Y-134394091D01*
X152224444Y-134394835D01*
X152277127Y-134400500D01*
X154172872Y-134400499D01*
X154232483Y-134394091D01*
X154367331Y-134343796D01*
X154482546Y-134257546D01*
X154568796Y-134142331D01*
X154597455Y-134065493D01*
X154639326Y-134009559D01*
X154704790Y-133985141D01*
X154773063Y-133999992D01*
X154804866Y-134024843D01*
X154812302Y-134032920D01*
X154813215Y-134033912D01*
X154813222Y-134033918D01*
X154996365Y-134176464D01*
X154996371Y-134176468D01*
X154996374Y-134176470D01*
X155200497Y-134286936D01*
X155314487Y-134326068D01*
X155420015Y-134362297D01*
X155420017Y-134362297D01*
X155420019Y-134362298D01*
X155648951Y-134400500D01*
X155648952Y-134400500D01*
X155881048Y-134400500D01*
X155881049Y-134400500D01*
X156109981Y-134362298D01*
X156329503Y-134286936D01*
X156533626Y-134176470D01*
X156716784Y-134033913D01*
X156873979Y-133863153D01*
X157000924Y-133668849D01*
X157000926Y-133668843D01*
X157002747Y-133665481D01*
X157051967Y-133615891D01*
X157111801Y-133600500D01*
X158913331Y-133600500D01*
X158913347Y-133600501D01*
X158920943Y-133600501D01*
X159079054Y-133600501D01*
X159079057Y-133600501D01*
X159231785Y-133559577D01*
X159281904Y-133530639D01*
X159368716Y-133480520D01*
X159480520Y-133368716D01*
X159480520Y-133368714D01*
X159490728Y-133358507D01*
X159490730Y-133358504D01*
X160083506Y-132765728D01*
X160083511Y-132765724D01*
X160093714Y-132755520D01*
X160093716Y-132755520D01*
X160205520Y-132643716D01*
X160277247Y-132519480D01*
X160284577Y-132506785D01*
X160288430Y-132492402D01*
X160324796Y-132432744D01*
X160387643Y-132402216D01*
X160408205Y-132400499D01*
X160672871Y-132400499D01*
X160672872Y-132400499D01*
X160732483Y-132394091D01*
X160867331Y-132343796D01*
X160982546Y-132257546D01*
X161068796Y-132142331D01*
X161070840Y-132136852D01*
X161097455Y-132065493D01*
X161139326Y-132009559D01*
X161204790Y-131985141D01*
X161273063Y-131999992D01*
X161304866Y-132024843D01*
X161312302Y-132032920D01*
X161313215Y-132033912D01*
X161313222Y-132033918D01*
X161496365Y-132176464D01*
X161496371Y-132176468D01*
X161496374Y-132176470D01*
X161700497Y-132286936D01*
X161814487Y-132326068D01*
X161920015Y-132362297D01*
X161920017Y-132362297D01*
X161920019Y-132362298D01*
X162148951Y-132400500D01*
X162148952Y-132400500D01*
X162381048Y-132400500D01*
X162381049Y-132400500D01*
X162609981Y-132362298D01*
X162829503Y-132286936D01*
X163033626Y-132176470D01*
X163216784Y-132033913D01*
X163373979Y-131863153D01*
X163500924Y-131668849D01*
X163500926Y-131668843D01*
X163502747Y-131665481D01*
X163551967Y-131615891D01*
X163611801Y-131600500D01*
X165413331Y-131600500D01*
X165413347Y-131600501D01*
X165420943Y-131600501D01*
X165579054Y-131600501D01*
X165579057Y-131600501D01*
X165731785Y-131559577D01*
X165801233Y-131519481D01*
X165868716Y-131480520D01*
X165980520Y-131368716D01*
X165980520Y-131368714D01*
X165990724Y-131358511D01*
X165990728Y-131358506D01*
X166583506Y-130765728D01*
X166583511Y-130765724D01*
X166593714Y-130755520D01*
X166593716Y-130755520D01*
X166705520Y-130643716D01*
X166763264Y-130543700D01*
X166763935Y-130542539D01*
X166784574Y-130506790D01*
X166784575Y-130506789D01*
X166784575Y-130506787D01*
X166784577Y-130506785D01*
X166825501Y-130354057D01*
X166825501Y-130195943D01*
X166825501Y-130188348D01*
X166825500Y-130188330D01*
X166825500Y-129024499D01*
X166845185Y-128957460D01*
X166897989Y-128911705D01*
X166949500Y-128900499D01*
X167172871Y-128900499D01*
X167172872Y-128900499D01*
X167232483Y-128894091D01*
X167367331Y-128843796D01*
X167482546Y-128757546D01*
X167568796Y-128642331D01*
X167597455Y-128565493D01*
X167639326Y-128509559D01*
X167704790Y-128485141D01*
X167773063Y-128499992D01*
X167804866Y-128524843D01*
X167812302Y-128532920D01*
X167813215Y-128533912D01*
X167813222Y-128533918D01*
X167996365Y-128676464D01*
X167996371Y-128676468D01*
X167996374Y-128676470D01*
X168200497Y-128786936D01*
X168314487Y-128826068D01*
X168420015Y-128862297D01*
X168420017Y-128862297D01*
X168420019Y-128862298D01*
X168648951Y-128900500D01*
X168648952Y-128900500D01*
X168881048Y-128900500D01*
X168881049Y-128900500D01*
X169109981Y-128862298D01*
X169329503Y-128786936D01*
X169533626Y-128676470D01*
X169716784Y-128533913D01*
X169873979Y-128363153D01*
X170000924Y-128168849D01*
X170000926Y-128168843D01*
X170002747Y-128165481D01*
X170051967Y-128115891D01*
X170111801Y-128100500D01*
X171913331Y-128100500D01*
X171913347Y-128100501D01*
X171920943Y-128100501D01*
X172079054Y-128100501D01*
X172079057Y-128100501D01*
X172231785Y-128059577D01*
X172281904Y-128030639D01*
X172368716Y-127980520D01*
X172480520Y-127868716D01*
X172480520Y-127868714D01*
X172490728Y-127858507D01*
X172490730Y-127858504D01*
X173083506Y-127265728D01*
X173083511Y-127265724D01*
X173093714Y-127255520D01*
X173093716Y-127255520D01*
X173205520Y-127143716D01*
X173268914Y-127033913D01*
X173284577Y-127006785D01*
X173325501Y-126854057D01*
X173325501Y-126695943D01*
X173325501Y-126688348D01*
X173325500Y-126688330D01*
X173325500Y-125524499D01*
X173345185Y-125457460D01*
X173397989Y-125411705D01*
X173449500Y-125400499D01*
X173672871Y-125400499D01*
X173672872Y-125400499D01*
X173732483Y-125394091D01*
X173867331Y-125343796D01*
X173982546Y-125257546D01*
X174068796Y-125142331D01*
X174070840Y-125136852D01*
X174097455Y-125065493D01*
X174139326Y-125009559D01*
X174204790Y-124985141D01*
X174273063Y-124999992D01*
X174304866Y-125024843D01*
X174312302Y-125032920D01*
X174313215Y-125033912D01*
X174313222Y-125033918D01*
X174496365Y-125176464D01*
X174496371Y-125176468D01*
X174496374Y-125176470D01*
X174700497Y-125286936D01*
X174814487Y-125326068D01*
X174920015Y-125362297D01*
X174920017Y-125362297D01*
X174920019Y-125362298D01*
X175148951Y-125400500D01*
X175148952Y-125400500D01*
X175381048Y-125400500D01*
X175381049Y-125400500D01*
X175609981Y-125362298D01*
X175829503Y-125286936D01*
X176033626Y-125176470D01*
X176216784Y-125033913D01*
X176373979Y-124863153D01*
X176500924Y-124668849D01*
X176594157Y-124456300D01*
X176651134Y-124231305D01*
X176651135Y-124231297D01*
X176670300Y-124000006D01*
X176670300Y-123999993D01*
X176651135Y-123768702D01*
X176651133Y-123768691D01*
X176594157Y-123543699D01*
X176500924Y-123331151D01*
X176373983Y-123136852D01*
X176373980Y-123136849D01*
X176373979Y-123136847D01*
X176216784Y-122966087D01*
X176216779Y-122966083D01*
X176216777Y-122966081D01*
X176033634Y-122823535D01*
X176033623Y-122823528D01*
X175930481Y-122767709D01*
X175880891Y-122718489D01*
X175865500Y-122658655D01*
X175865500Y-119524499D01*
X175885185Y-119457460D01*
X175937989Y-119411705D01*
X175989500Y-119400499D01*
X176907871Y-119400499D01*
X176907872Y-119400499D01*
X176967483Y-119394091D01*
X177102331Y-119343796D01*
X177217546Y-119257546D01*
X177303796Y-119142331D01*
X177332455Y-119065493D01*
X177374326Y-119009559D01*
X177439790Y-118985141D01*
X177508063Y-118999992D01*
X177539866Y-119024843D01*
X177547302Y-119032920D01*
X177548215Y-119033912D01*
X177548222Y-119033918D01*
X177731365Y-119176464D01*
X177731371Y-119176468D01*
X177731374Y-119176470D01*
X177935497Y-119286936D01*
X178049487Y-119326068D01*
X178155015Y-119362297D01*
X178155017Y-119362297D01*
X178155019Y-119362298D01*
X178383951Y-119400500D01*
X178383952Y-119400500D01*
X178616048Y-119400500D01*
X178616049Y-119400500D01*
X178844981Y-119362298D01*
X179064503Y-119286936D01*
X179268626Y-119176470D01*
X179272048Y-119173807D01*
X179330129Y-119128600D01*
X179451784Y-119033913D01*
X179608979Y-118863153D01*
X179735924Y-118668849D01*
X179829157Y-118456300D01*
X179886134Y-118231305D01*
X179896472Y-118106546D01*
X179905300Y-118000006D01*
X179905300Y-117999993D01*
X179886135Y-117768702D01*
X179886133Y-117768691D01*
X179829157Y-117543699D01*
X179735924Y-117331151D01*
X179608983Y-117136852D01*
X179608980Y-117136849D01*
X179608979Y-117136847D01*
X179451784Y-116966087D01*
X179451779Y-116966083D01*
X179451777Y-116966081D01*
X179268634Y-116823535D01*
X179268623Y-116823528D01*
X179165481Y-116767709D01*
X179115891Y-116718489D01*
X179100500Y-116658655D01*
X179100500Y-114300096D01*
X179120185Y-114233057D01*
X179136810Y-114212424D01*
X179205398Y-114143835D01*
X179266716Y-114110354D01*
X179336408Y-114115338D01*
X179392341Y-114157209D01*
X179467452Y-114257544D01*
X179467455Y-114257547D01*
X179582664Y-114343793D01*
X179582671Y-114343797D01*
X179717517Y-114394091D01*
X179717516Y-114394091D01*
X179724444Y-114394835D01*
X179777127Y-114400500D01*
X181672872Y-114400499D01*
X181732483Y-114394091D01*
X181867331Y-114343796D01*
X181982546Y-114257546D01*
X182068796Y-114142331D01*
X182097455Y-114065493D01*
X182139326Y-114009559D01*
X182204790Y-113985141D01*
X182273063Y-113999992D01*
X182304866Y-114024843D01*
X182312302Y-114032920D01*
X182313215Y-114033912D01*
X182313222Y-114033918D01*
X182496365Y-114176464D01*
X182496371Y-114176468D01*
X182496374Y-114176470D01*
X182700497Y-114286936D01*
X182814487Y-114326068D01*
X182920015Y-114362297D01*
X182920017Y-114362297D01*
X182920019Y-114362298D01*
X183148951Y-114400500D01*
X183148952Y-114400500D01*
X183381048Y-114400500D01*
X183381049Y-114400500D01*
X183609981Y-114362298D01*
X183829503Y-114286936D01*
X184033626Y-114176470D01*
X184075551Y-114143839D01*
X184158779Y-114079060D01*
X184216784Y-114033913D01*
X184373979Y-113863153D01*
X184500924Y-113668849D01*
X184594157Y-113456300D01*
X184651134Y-113231305D01*
X184651135Y-113231297D01*
X184670300Y-113000006D01*
X184670300Y-112999993D01*
X184651135Y-112768702D01*
X184651133Y-112768691D01*
X184594157Y-112543699D01*
X184500924Y-112331151D01*
X184373983Y-112136852D01*
X184373980Y-112136849D01*
X184373979Y-112136847D01*
X184216784Y-111966087D01*
X184216779Y-111966083D01*
X184216777Y-111966081D01*
X184033634Y-111823535D01*
X184033623Y-111823528D01*
X183930481Y-111767709D01*
X183880891Y-111718489D01*
X183865500Y-111658655D01*
X183865500Y-110354060D01*
X183865501Y-110354047D01*
X183865501Y-110185944D01*
X183857743Y-110156990D01*
X183824577Y-110033216D01*
X183787710Y-109969360D01*
X183745524Y-109896290D01*
X183745518Y-109896282D01*
X182596819Y-108747583D01*
X182563334Y-108686260D01*
X182560500Y-108659902D01*
X182560500Y-108024499D01*
X182580185Y-107957460D01*
X182632989Y-107911705D01*
X182684500Y-107900499D01*
X182907871Y-107900499D01*
X182907872Y-107900499D01*
X182967483Y-107894091D01*
X183102331Y-107843796D01*
X183217546Y-107757546D01*
X183303796Y-107642331D01*
X183332455Y-107565493D01*
X183374326Y-107509559D01*
X183439790Y-107485141D01*
X183508063Y-107499992D01*
X183539866Y-107524843D01*
X183547302Y-107532920D01*
X183548215Y-107533912D01*
X183548222Y-107533918D01*
X183731365Y-107676464D01*
X183731371Y-107676468D01*
X183731374Y-107676470D01*
X183935497Y-107786936D01*
X184049487Y-107826068D01*
X184155015Y-107862297D01*
X184155017Y-107862297D01*
X184155019Y-107862298D01*
X184383951Y-107900500D01*
X184383952Y-107900500D01*
X184616048Y-107900500D01*
X184616049Y-107900500D01*
X184844981Y-107862298D01*
X185064503Y-107786936D01*
X185268626Y-107676470D01*
X185451784Y-107533913D01*
X185608979Y-107363153D01*
X185735924Y-107168849D01*
X185829157Y-106956300D01*
X185886134Y-106731305D01*
X185905300Y-106500000D01*
X185905300Y-106499993D01*
X185886135Y-106268702D01*
X185886133Y-106268691D01*
X185829157Y-106043699D01*
X185735924Y-105831151D01*
X185608983Y-105636852D01*
X185608980Y-105636849D01*
X185608979Y-105636847D01*
X185451784Y-105466087D01*
X185451779Y-105466083D01*
X185451777Y-105466081D01*
X185268634Y-105323535D01*
X185268623Y-105323528D01*
X185165481Y-105267709D01*
X185115891Y-105218489D01*
X185100500Y-105158655D01*
X185100500Y-104589060D01*
X185100501Y-104589047D01*
X185100501Y-104420944D01*
X185059576Y-104268214D01*
X185059573Y-104268209D01*
X184980524Y-104131290D01*
X184980521Y-104131286D01*
X184980520Y-104131284D01*
X183987589Y-103138354D01*
X183987588Y-103138352D01*
X183868717Y-103019481D01*
X183868716Y-103019480D01*
X183781904Y-102969360D01*
X183781904Y-102969359D01*
X183781900Y-102969358D01*
X183731785Y-102940423D01*
X183579057Y-102899499D01*
X183420943Y-102899499D01*
X183413347Y-102899499D01*
X183413331Y-102899500D01*
X182300097Y-102899500D01*
X182233058Y-102879815D01*
X182212416Y-102863181D01*
X182096819Y-102747584D01*
X182063334Y-102686261D01*
X182060500Y-102659903D01*
X182060500Y-101524499D01*
X182080185Y-101457460D01*
X182132989Y-101411705D01*
X182184500Y-101400499D01*
X182407871Y-101400499D01*
X182407872Y-101400499D01*
X182467483Y-101394091D01*
X182602331Y-101343796D01*
X182717546Y-101257546D01*
X182803796Y-101142331D01*
X182832455Y-101065493D01*
X182874326Y-101009559D01*
X182939790Y-100985141D01*
X183008063Y-100999992D01*
X183039866Y-101024843D01*
X183047302Y-101032920D01*
X183048215Y-101033912D01*
X183048222Y-101033918D01*
X183231365Y-101176464D01*
X183231371Y-101176468D01*
X183231374Y-101176470D01*
X183435497Y-101286936D01*
X183549487Y-101326068D01*
X183655015Y-101362297D01*
X183655017Y-101362297D01*
X183655019Y-101362298D01*
X183883951Y-101400500D01*
X183883952Y-101400500D01*
X184116048Y-101400500D01*
X184116049Y-101400500D01*
X184344981Y-101362298D01*
X184564503Y-101286936D01*
X184768626Y-101176470D01*
X184951784Y-101033913D01*
X185108979Y-100863153D01*
X185235924Y-100668849D01*
X185329157Y-100456300D01*
X185386134Y-100231305D01*
X185386135Y-100231297D01*
X185405300Y-100000006D01*
X185405300Y-99999993D01*
X185386135Y-99768702D01*
X185386133Y-99768691D01*
X185329157Y-99543699D01*
X185235924Y-99331151D01*
X185108983Y-99136852D01*
X185108980Y-99136849D01*
X185108979Y-99136847D01*
X184951784Y-98966087D01*
X184951779Y-98966083D01*
X184951777Y-98966081D01*
X184768634Y-98823535D01*
X184768623Y-98823528D01*
X184665481Y-98767709D01*
X184615891Y-98718489D01*
X184600500Y-98658655D01*
X184600500Y-98089060D01*
X184600501Y-98089047D01*
X184600501Y-97920944D01*
X184593893Y-97896282D01*
X184559577Y-97768216D01*
X184515450Y-97691785D01*
X184480524Y-97631290D01*
X184480521Y-97631286D01*
X184480520Y-97631284D01*
X183980521Y-97131285D01*
X183980520Y-97131284D01*
X183868716Y-97019480D01*
X183781904Y-96969360D01*
X183781904Y-96969359D01*
X183781900Y-96969358D01*
X183731785Y-96940423D01*
X183579057Y-96899499D01*
X183420943Y-96899499D01*
X183413347Y-96899499D01*
X183413331Y-96899500D01*
X182300098Y-96899500D01*
X182233059Y-96879815D01*
X182212417Y-96863181D01*
X181861819Y-96512583D01*
X181828334Y-96451260D01*
X181825500Y-96424902D01*
X181825500Y-95024499D01*
X181845185Y-94957460D01*
X181897989Y-94911705D01*
X181949500Y-94900499D01*
X182172871Y-94900499D01*
X182172872Y-94900499D01*
X182232483Y-94894091D01*
X182367331Y-94843796D01*
X182482546Y-94757546D01*
X182568796Y-94642331D01*
X182597455Y-94565493D01*
X182639326Y-94509559D01*
X182704790Y-94485141D01*
X182773063Y-94499992D01*
X182804866Y-94524843D01*
X182812302Y-94532920D01*
X182813215Y-94533912D01*
X182813222Y-94533918D01*
X182996365Y-94676464D01*
X182996371Y-94676468D01*
X182996374Y-94676470D01*
X183200497Y-94786936D01*
X183314487Y-94826068D01*
X183420015Y-94862297D01*
X183420017Y-94862297D01*
X183420019Y-94862298D01*
X183648951Y-94900500D01*
X183648952Y-94900500D01*
X183881048Y-94900500D01*
X183881049Y-94900500D01*
X184109981Y-94862298D01*
X184329503Y-94786936D01*
X184533626Y-94676470D01*
X184716784Y-94533913D01*
X184873979Y-94363153D01*
X185000924Y-94168849D01*
X185094157Y-93956300D01*
X185151134Y-93731305D01*
X185151135Y-93731297D01*
X185170300Y-93500006D01*
X185170300Y-93499993D01*
X185151135Y-93268702D01*
X185151133Y-93268691D01*
X185094157Y-93043699D01*
X185000924Y-92831151D01*
X184873983Y-92636852D01*
X184873980Y-92636849D01*
X184873979Y-92636847D01*
X184716784Y-92466087D01*
X184716779Y-92466083D01*
X184716777Y-92466081D01*
X184533634Y-92323535D01*
X184533623Y-92323528D01*
X184430481Y-92267709D01*
X184380891Y-92218489D01*
X184365500Y-92158655D01*
X184365500Y-91854060D01*
X184365501Y-91854047D01*
X184365501Y-91685944D01*
X184342957Y-91601810D01*
X184324577Y-91533216D01*
X184324573Y-91533209D01*
X184245524Y-91396290D01*
X184245518Y-91396282D01*
X183997961Y-91148726D01*
X183997959Y-91148723D01*
X183868717Y-91019481D01*
X183868716Y-91019480D01*
X183781904Y-90969360D01*
X183781904Y-90969359D01*
X183781900Y-90969358D01*
X183731785Y-90940423D01*
X183579057Y-90899499D01*
X183420943Y-90899499D01*
X183413347Y-90899499D01*
X183413331Y-90899500D01*
X179800098Y-90899500D01*
X179733059Y-90879815D01*
X179712417Y-90863181D01*
X179361819Y-90512583D01*
X179328334Y-90451260D01*
X179325500Y-90424902D01*
X179325500Y-88524499D01*
X179345185Y-88457460D01*
X179397989Y-88411705D01*
X179449500Y-88400499D01*
X179672871Y-88400499D01*
X179672872Y-88400499D01*
X179732483Y-88394091D01*
X179867331Y-88343796D01*
X179982546Y-88257546D01*
X180068796Y-88142331D01*
X180097455Y-88065493D01*
X180139326Y-88009559D01*
X180204790Y-87985141D01*
X180273063Y-87999992D01*
X180304866Y-88024843D01*
X180312302Y-88032920D01*
X180313215Y-88033912D01*
X180313222Y-88033918D01*
X180496365Y-88176464D01*
X180496371Y-88176468D01*
X180496374Y-88176470D01*
X180700497Y-88286936D01*
X180814487Y-88326068D01*
X180920015Y-88362297D01*
X180920017Y-88362297D01*
X180920019Y-88362298D01*
X181148951Y-88400500D01*
X181148952Y-88400500D01*
X181381048Y-88400500D01*
X181381049Y-88400500D01*
X181609981Y-88362298D01*
X181829503Y-88286936D01*
X182033626Y-88176470D01*
X182216784Y-88033913D01*
X182373979Y-87863153D01*
X182500924Y-87668849D01*
X182594157Y-87456300D01*
X182651134Y-87231305D01*
X182651135Y-87231297D01*
X182670300Y-87000006D01*
X182670300Y-86999993D01*
X182651135Y-86768702D01*
X182651133Y-86768691D01*
X182594157Y-86543699D01*
X182500924Y-86331151D01*
X182373983Y-86136852D01*
X182373980Y-86136849D01*
X182373979Y-86136847D01*
X182216784Y-85966087D01*
X182216779Y-85966083D01*
X182216777Y-85966081D01*
X182033634Y-85823535D01*
X182033623Y-85823528D01*
X181930481Y-85767709D01*
X181880891Y-85718489D01*
X181865500Y-85658655D01*
X181865500Y-85185945D01*
X181865500Y-85185943D01*
X181824577Y-85033216D01*
X181794152Y-84980518D01*
X181745524Y-84896290D01*
X181745521Y-84896286D01*
X181745520Y-84896284D01*
X181633716Y-84784480D01*
X181633715Y-84784479D01*
X181629385Y-84780149D01*
X181629374Y-84780139D01*
X180987590Y-84138355D01*
X180987588Y-84138352D01*
X180868717Y-84019481D01*
X180868716Y-84019480D01*
X180781904Y-83969360D01*
X180781904Y-83969359D01*
X180781900Y-83969358D01*
X180731785Y-83940423D01*
X180579057Y-83899499D01*
X180420943Y-83899499D01*
X180413347Y-83899499D01*
X180413331Y-83899500D01*
X177300098Y-83899500D01*
X177233059Y-83879815D01*
X177212417Y-83863181D01*
X176861819Y-83512583D01*
X176828334Y-83451260D01*
X176825500Y-83424902D01*
X176825500Y-82024499D01*
X176845185Y-81957460D01*
X176897989Y-81911705D01*
X176949500Y-81900499D01*
X177172871Y-81900499D01*
X177172872Y-81900499D01*
X177232483Y-81894091D01*
X177367331Y-81843796D01*
X177482546Y-81757546D01*
X177568796Y-81642331D01*
X177587834Y-81591287D01*
X177597455Y-81565493D01*
X177639326Y-81509559D01*
X177704790Y-81485141D01*
X177773063Y-81499992D01*
X177804866Y-81524843D01*
X177812302Y-81532920D01*
X177813215Y-81533912D01*
X177813222Y-81533918D01*
X177996365Y-81676464D01*
X177996371Y-81676468D01*
X177996374Y-81676470D01*
X178200497Y-81786936D01*
X178314487Y-81826068D01*
X178420015Y-81862297D01*
X178420017Y-81862297D01*
X178420019Y-81862298D01*
X178648951Y-81900500D01*
X178648952Y-81900500D01*
X178881048Y-81900500D01*
X178881049Y-81900500D01*
X179109981Y-81862298D01*
X179329503Y-81786936D01*
X179533626Y-81676470D01*
X179716784Y-81533913D01*
X179873979Y-81363153D01*
X180000924Y-81168849D01*
X180094157Y-80956300D01*
X180151134Y-80731305D01*
X180170300Y-80500000D01*
X180170300Y-80499993D01*
X180151135Y-80268702D01*
X180151133Y-80268691D01*
X180094157Y-80043699D01*
X180000924Y-79831151D01*
X179873983Y-79636852D01*
X179873980Y-79636849D01*
X179873979Y-79636847D01*
X179716784Y-79466087D01*
X179716779Y-79466083D01*
X179716777Y-79466081D01*
X179533634Y-79323535D01*
X179533619Y-79323525D01*
X179427046Y-79265850D01*
X179377455Y-79216631D01*
X179366290Y-79188893D01*
X179365500Y-79185944D01*
X179365500Y-79185943D01*
X179357531Y-79156204D01*
X179357530Y-79156202D01*
X179356202Y-79151246D01*
X179352574Y-79137702D01*
X179324577Y-79033216D01*
X179294153Y-78980520D01*
X179245524Y-78896290D01*
X179245521Y-78896286D01*
X179245520Y-78896284D01*
X179133716Y-78784480D01*
X179133715Y-78784479D01*
X179129385Y-78780149D01*
X179129374Y-78780139D01*
X178487590Y-78138355D01*
X178487588Y-78138352D01*
X178368717Y-78019481D01*
X178368716Y-78019480D01*
X178280434Y-77968511D01*
X178280433Y-77968510D01*
X178231783Y-77940422D01*
X178175881Y-77925443D01*
X178079057Y-77899499D01*
X177920943Y-77899499D01*
X177913347Y-77899499D01*
X177913331Y-77899500D01*
X174313767Y-77899500D01*
X174246728Y-77879815D01*
X174200973Y-77827011D01*
X174191029Y-77757853D01*
X174209959Y-77707678D01*
X174235482Y-77668611D01*
X174328682Y-77456135D01*
X174385638Y-77231218D01*
X174404798Y-77000005D01*
X174404798Y-76999994D01*
X174385638Y-76768781D01*
X174328682Y-76543864D01*
X174235484Y-76331393D01*
X174151186Y-76202365D01*
X173442137Y-76911413D01*
X173419333Y-76826306D01*
X173360090Y-76723694D01*
X173276306Y-76639910D01*
X173173694Y-76580667D01*
X173088584Y-76557861D01*
X173798797Y-75847647D01*
X173798797Y-75847645D01*
X173768360Y-75823955D01*
X173768354Y-75823951D01*
X173564302Y-75713523D01*
X173564293Y-75713520D01*
X173344860Y-75638188D01*
X173116007Y-75600000D01*
X172883993Y-75600000D01*
X172655139Y-75638188D01*
X172435706Y-75713520D01*
X172435697Y-75713523D01*
X172231650Y-75823949D01*
X172201200Y-75847647D01*
X172911415Y-76557861D01*
X172826306Y-76580667D01*
X172723694Y-76639910D01*
X172639910Y-76723694D01*
X172580667Y-76826306D01*
X172557861Y-76911415D01*
X171896818Y-76250371D01*
X171863333Y-76189048D01*
X171860499Y-76162690D01*
X171860499Y-76052129D01*
X171860498Y-76052123D01*
X171860497Y-76052116D01*
X171854091Y-75992517D01*
X171853225Y-75990196D01*
X171803797Y-75857671D01*
X171803793Y-75857664D01*
X171717547Y-75742455D01*
X171717544Y-75742452D01*
X171602335Y-75656206D01*
X171602328Y-75656202D01*
X171467482Y-75605908D01*
X171467483Y-75605908D01*
X171407883Y-75599501D01*
X171407881Y-75599500D01*
X171407873Y-75599500D01*
X171407864Y-75599500D01*
X169512129Y-75599500D01*
X169512123Y-75599501D01*
X169452516Y-75605908D01*
X169317671Y-75656202D01*
X169317664Y-75656206D01*
X169202455Y-75742452D01*
X169202452Y-75742455D01*
X169116206Y-75857664D01*
X169116202Y-75857671D01*
X169065908Y-75992517D01*
X169059501Y-76052116D01*
X169059501Y-76052123D01*
X169059500Y-76052135D01*
X169059500Y-77947870D01*
X169059501Y-77947876D01*
X169065908Y-78007483D01*
X169116202Y-78142328D01*
X169116206Y-78142335D01*
X169202452Y-78257544D01*
X169202455Y-78257547D01*
X169317664Y-78343793D01*
X169317671Y-78343797D01*
X169452517Y-78394091D01*
X169452516Y-78394091D01*
X169459444Y-78394835D01*
X169512127Y-78400500D01*
X170499902Y-78400499D01*
X170566941Y-78420183D01*
X170587583Y-78436818D01*
X171015139Y-78864374D01*
X171015149Y-78864385D01*
X171019479Y-78868715D01*
X171019480Y-78868716D01*
X171131284Y-78980520D01*
X171151413Y-78992141D01*
X171218095Y-79030639D01*
X171218097Y-79030641D01*
X171256151Y-79052611D01*
X171268215Y-79059577D01*
X171420943Y-79100500D01*
X171579057Y-79100500D01*
X174825999Y-79100500D01*
X174893038Y-79120185D01*
X174938793Y-79172989D01*
X174948737Y-79242147D01*
X174925265Y-79298810D01*
X174906757Y-79323535D01*
X174881204Y-79357668D01*
X174881202Y-79357671D01*
X174830908Y-79492517D01*
X174824501Y-79552116D01*
X174824500Y-79552135D01*
X174824500Y-81447870D01*
X174824501Y-81447876D01*
X174830908Y-81507483D01*
X174881202Y-81642328D01*
X174881206Y-81642335D01*
X174967452Y-81757544D01*
X174967455Y-81757547D01*
X175082664Y-81843793D01*
X175082671Y-81843797D01*
X175127618Y-81860561D01*
X175217517Y-81894091D01*
X175277127Y-81900500D01*
X175500500Y-81900499D01*
X175567539Y-81920183D01*
X175613294Y-81972987D01*
X175624500Y-82024499D01*
X175624500Y-83638330D01*
X175624499Y-83638348D01*
X175624499Y-83804054D01*
X175624498Y-83804054D01*
X175665423Y-83956785D01*
X175694358Y-84006900D01*
X175694359Y-84006904D01*
X175694360Y-84006904D01*
X175744479Y-84093714D01*
X175744481Y-84093717D01*
X175863349Y-84212585D01*
X175863354Y-84212589D01*
X176631284Y-84980520D01*
X176631286Y-84980521D01*
X176631290Y-84980524D01*
X176722545Y-85033209D01*
X176768216Y-85059577D01*
X176920943Y-85100501D01*
X176920945Y-85100501D01*
X177086654Y-85100501D01*
X177086670Y-85100500D01*
X180199903Y-85100500D01*
X180266942Y-85120185D01*
X180287584Y-85136819D01*
X180628181Y-85477416D01*
X180661666Y-85538739D01*
X180664500Y-85565097D01*
X180664500Y-85658655D01*
X180644815Y-85725694D01*
X180599519Y-85767709D01*
X180496376Y-85823528D01*
X180496365Y-85823535D01*
X180313222Y-85966081D01*
X180313218Y-85966085D01*
X180304866Y-85975158D01*
X180244979Y-86011148D01*
X180175141Y-86009047D01*
X180117525Y-85969522D01*
X180097455Y-85934507D01*
X180068797Y-85857671D01*
X180068793Y-85857664D01*
X179982547Y-85742455D01*
X179982544Y-85742452D01*
X179867335Y-85656206D01*
X179867328Y-85656202D01*
X179732482Y-85605908D01*
X179732483Y-85605908D01*
X179672883Y-85599501D01*
X179672881Y-85599500D01*
X179672873Y-85599500D01*
X179672864Y-85599500D01*
X177777129Y-85599500D01*
X177777123Y-85599501D01*
X177717516Y-85605908D01*
X177582671Y-85656202D01*
X177582664Y-85656206D01*
X177467455Y-85742452D01*
X177467452Y-85742455D01*
X177381206Y-85857664D01*
X177381202Y-85857671D01*
X177330908Y-85992517D01*
X177324501Y-86052116D01*
X177324500Y-86052135D01*
X177324500Y-87947870D01*
X177324501Y-87947876D01*
X177330908Y-88007483D01*
X177381202Y-88142328D01*
X177381206Y-88142335D01*
X177467452Y-88257544D01*
X177467455Y-88257547D01*
X177582664Y-88343793D01*
X177582671Y-88343797D01*
X177627618Y-88360561D01*
X177717517Y-88394091D01*
X177777127Y-88400500D01*
X178000500Y-88400499D01*
X178067539Y-88420183D01*
X178113294Y-88472987D01*
X178124500Y-88524499D01*
X178124500Y-90638330D01*
X178124499Y-90638348D01*
X178124499Y-90804054D01*
X178124498Y-90804054D01*
X178165423Y-90956785D01*
X178194358Y-91006900D01*
X178194359Y-91006904D01*
X178194360Y-91006904D01*
X178241784Y-91089047D01*
X178244479Y-91093714D01*
X178244481Y-91093717D01*
X178363349Y-91212585D01*
X178363354Y-91212589D01*
X179131284Y-91980520D01*
X179131286Y-91980521D01*
X179131290Y-91980524D01*
X179268209Y-92059573D01*
X179268216Y-92059577D01*
X179420943Y-92100501D01*
X179420945Y-92100501D01*
X179586654Y-92100501D01*
X179586670Y-92100500D01*
X179825999Y-92100500D01*
X179893038Y-92120185D01*
X179938793Y-92172989D01*
X179948737Y-92242147D01*
X179925265Y-92298810D01*
X179906757Y-92323535D01*
X179881204Y-92357668D01*
X179881202Y-92357671D01*
X179830908Y-92492517D01*
X179824501Y-92552116D01*
X179824500Y-92552135D01*
X179824500Y-94447870D01*
X179824501Y-94447876D01*
X179830908Y-94507483D01*
X179881202Y-94642328D01*
X179881206Y-94642335D01*
X179967452Y-94757544D01*
X179967455Y-94757547D01*
X180082664Y-94843793D01*
X180082671Y-94843797D01*
X180127618Y-94860561D01*
X180217517Y-94894091D01*
X180277127Y-94900500D01*
X180500500Y-94900499D01*
X180567539Y-94920183D01*
X180613294Y-94972987D01*
X180624500Y-95024499D01*
X180624500Y-96638330D01*
X180624499Y-96638348D01*
X180624499Y-96804054D01*
X180624498Y-96804054D01*
X180624499Y-96804057D01*
X180665423Y-96956785D01*
X180665424Y-96956787D01*
X180665423Y-96956787D01*
X180678527Y-96979482D01*
X180678528Y-96979484D01*
X180744475Y-97093709D01*
X180744481Y-97093717D01*
X180863349Y-97212585D01*
X180863354Y-97212589D01*
X181631284Y-97980520D01*
X181631286Y-97980521D01*
X181631290Y-97980524D01*
X181722557Y-98033216D01*
X181768216Y-98059577D01*
X181920943Y-98100501D01*
X181920945Y-98100501D01*
X182086654Y-98100501D01*
X182086670Y-98100500D01*
X183199903Y-98100500D01*
X183266942Y-98120185D01*
X183287584Y-98136819D01*
X183363181Y-98212416D01*
X183396666Y-98273739D01*
X183399500Y-98300097D01*
X183399500Y-98658655D01*
X183379815Y-98725694D01*
X183334519Y-98767709D01*
X183231376Y-98823528D01*
X183231365Y-98823535D01*
X183048222Y-98966081D01*
X183048218Y-98966085D01*
X183039866Y-98975158D01*
X182979979Y-99011148D01*
X182910141Y-99009047D01*
X182852525Y-98969522D01*
X182832455Y-98934507D01*
X182803797Y-98857671D01*
X182803793Y-98857664D01*
X182717547Y-98742455D01*
X182717544Y-98742452D01*
X182602335Y-98656206D01*
X182602328Y-98656202D01*
X182467482Y-98605908D01*
X182467483Y-98605908D01*
X182407883Y-98599501D01*
X182407881Y-98599500D01*
X182407873Y-98599500D01*
X182407864Y-98599500D01*
X180512129Y-98599500D01*
X180512123Y-98599501D01*
X180452516Y-98605908D01*
X180317671Y-98656202D01*
X180317664Y-98656206D01*
X180202455Y-98742452D01*
X180202452Y-98742455D01*
X180116206Y-98857664D01*
X180116202Y-98857671D01*
X180065908Y-98992517D01*
X180059501Y-99052116D01*
X180059500Y-99052135D01*
X180059500Y-100947870D01*
X180059501Y-100947876D01*
X180065908Y-101007483D01*
X180116202Y-101142328D01*
X180116206Y-101142335D01*
X180202452Y-101257544D01*
X180202455Y-101257547D01*
X180317664Y-101343793D01*
X180317671Y-101343797D01*
X180362618Y-101360561D01*
X180452517Y-101394091D01*
X180512127Y-101400500D01*
X180735500Y-101400499D01*
X180802539Y-101420183D01*
X180848294Y-101472987D01*
X180859500Y-101524499D01*
X180859500Y-102873330D01*
X180859499Y-102873348D01*
X180859499Y-103039054D01*
X180859498Y-103039054D01*
X180900423Y-103191785D01*
X180929358Y-103241900D01*
X180929359Y-103241904D01*
X180929360Y-103241904D01*
X180979479Y-103328714D01*
X180979481Y-103328717D01*
X181098349Y-103447585D01*
X181098355Y-103447590D01*
X181515139Y-103864374D01*
X181515149Y-103864385D01*
X181519479Y-103868715D01*
X181519480Y-103868716D01*
X181631284Y-103980520D01*
X181698767Y-104019481D01*
X181768215Y-104059577D01*
X181920942Y-104100500D01*
X181920943Y-104100500D01*
X183199903Y-104100500D01*
X183266942Y-104120185D01*
X183287584Y-104136819D01*
X183863181Y-104712416D01*
X183896666Y-104773739D01*
X183899500Y-104800097D01*
X183899500Y-105158655D01*
X183879815Y-105225694D01*
X183834519Y-105267709D01*
X183731376Y-105323528D01*
X183731365Y-105323535D01*
X183548222Y-105466081D01*
X183548218Y-105466085D01*
X183539866Y-105475158D01*
X183479979Y-105511148D01*
X183410141Y-105509047D01*
X183352525Y-105469522D01*
X183332455Y-105434507D01*
X183303797Y-105357671D01*
X183303793Y-105357664D01*
X183217547Y-105242455D01*
X183217544Y-105242452D01*
X183102335Y-105156206D01*
X183102328Y-105156202D01*
X182967482Y-105105908D01*
X182967483Y-105105908D01*
X182907883Y-105099501D01*
X182907881Y-105099500D01*
X182907873Y-105099500D01*
X182907864Y-105099500D01*
X181012129Y-105099500D01*
X181012123Y-105099501D01*
X180952516Y-105105908D01*
X180817671Y-105156202D01*
X180817664Y-105156206D01*
X180702455Y-105242452D01*
X180702452Y-105242455D01*
X180616206Y-105357664D01*
X180616202Y-105357671D01*
X180565908Y-105492517D01*
X180559501Y-105552116D01*
X180559500Y-105552135D01*
X180559500Y-107447870D01*
X180559501Y-107447876D01*
X180565908Y-107507483D01*
X180616202Y-107642328D01*
X180616206Y-107642335D01*
X180702452Y-107757544D01*
X180702455Y-107757547D01*
X180817664Y-107843793D01*
X180817671Y-107843797D01*
X180862618Y-107860561D01*
X180952517Y-107894091D01*
X181012127Y-107900500D01*
X181235500Y-107900499D01*
X181302539Y-107920183D01*
X181348294Y-107972987D01*
X181359500Y-108024499D01*
X181359500Y-108873330D01*
X181359499Y-108873348D01*
X181359499Y-109039054D01*
X181359498Y-109039054D01*
X181400423Y-109191785D01*
X181429358Y-109241900D01*
X181429359Y-109241904D01*
X181429360Y-109241904D01*
X181479479Y-109328714D01*
X181479481Y-109328717D01*
X181598349Y-109447585D01*
X181598355Y-109447590D01*
X182628181Y-110477416D01*
X182661666Y-110538739D01*
X182664500Y-110565097D01*
X182664500Y-111658655D01*
X182644815Y-111725694D01*
X182599519Y-111767709D01*
X182496376Y-111823528D01*
X182496365Y-111823535D01*
X182313222Y-111966081D01*
X182313218Y-111966085D01*
X182304866Y-111975158D01*
X182244979Y-112011148D01*
X182175141Y-112009047D01*
X182117525Y-111969522D01*
X182097455Y-111934507D01*
X182068797Y-111857671D01*
X182068793Y-111857664D01*
X181982547Y-111742455D01*
X181982544Y-111742452D01*
X181867335Y-111656206D01*
X181867328Y-111656202D01*
X181732482Y-111605908D01*
X181732483Y-111605908D01*
X181672883Y-111599501D01*
X181672881Y-111599500D01*
X181672873Y-111599500D01*
X181672864Y-111599500D01*
X179777129Y-111599500D01*
X179777123Y-111599501D01*
X179717516Y-111605908D01*
X179582671Y-111656202D01*
X179582664Y-111656206D01*
X179467455Y-111742452D01*
X179467452Y-111742455D01*
X179381206Y-111857664D01*
X179381202Y-111857671D01*
X179330908Y-111992517D01*
X179324501Y-112052116D01*
X179324500Y-112052135D01*
X179324500Y-112336336D01*
X179304815Y-112403375D01*
X179262499Y-112443723D01*
X179131290Y-112519475D01*
X179131282Y-112519481D01*
X178019481Y-113631282D01*
X178019479Y-113631285D01*
X177969361Y-113718094D01*
X177969359Y-113718096D01*
X177940425Y-113768209D01*
X177940424Y-113768210D01*
X177940423Y-113768215D01*
X177899499Y-113920943D01*
X177899499Y-113920945D01*
X177899499Y-114089046D01*
X177899500Y-114089059D01*
X177899500Y-116658655D01*
X177879815Y-116725694D01*
X177834519Y-116767709D01*
X177731376Y-116823528D01*
X177731365Y-116823535D01*
X177548222Y-116966081D01*
X177548218Y-116966085D01*
X177539866Y-116975158D01*
X177479979Y-117011148D01*
X177410141Y-117009047D01*
X177352525Y-116969522D01*
X177332455Y-116934507D01*
X177303797Y-116857671D01*
X177303793Y-116857664D01*
X177217547Y-116742455D01*
X177217544Y-116742452D01*
X177102335Y-116656206D01*
X177102328Y-116656202D01*
X176967482Y-116605908D01*
X176967483Y-116605908D01*
X176907883Y-116599501D01*
X176907881Y-116599500D01*
X176907873Y-116599500D01*
X176907864Y-116599500D01*
X175012129Y-116599500D01*
X175012123Y-116599501D01*
X174952516Y-116605908D01*
X174817671Y-116656202D01*
X174817664Y-116656206D01*
X174702455Y-116742452D01*
X174702452Y-116742455D01*
X174616206Y-116857664D01*
X174616202Y-116857671D01*
X174565908Y-116992517D01*
X174559501Y-117052116D01*
X174559500Y-117052135D01*
X174559500Y-118947870D01*
X174559501Y-118947876D01*
X174565908Y-119007483D01*
X174616202Y-119142328D01*
X174616203Y-119142329D01*
X174616204Y-119142331D01*
X174639767Y-119173807D01*
X174664184Y-119239271D01*
X174664500Y-119248118D01*
X174664500Y-122658655D01*
X174644815Y-122725694D01*
X174599519Y-122767709D01*
X174496376Y-122823528D01*
X174496365Y-122823535D01*
X174313222Y-122966081D01*
X174313218Y-122966085D01*
X174304866Y-122975158D01*
X174244979Y-123011148D01*
X174175141Y-123009047D01*
X174117525Y-122969522D01*
X174097455Y-122934507D01*
X174068797Y-122857671D01*
X174068793Y-122857664D01*
X173982547Y-122742455D01*
X173982544Y-122742452D01*
X173867335Y-122656206D01*
X173867328Y-122656202D01*
X173732482Y-122605908D01*
X173732483Y-122605908D01*
X173672883Y-122599501D01*
X173672881Y-122599500D01*
X173672873Y-122599500D01*
X173672864Y-122599500D01*
X171777129Y-122599500D01*
X171777123Y-122599501D01*
X171717516Y-122605908D01*
X171582671Y-122656202D01*
X171582664Y-122656206D01*
X171467455Y-122742452D01*
X171467452Y-122742455D01*
X171381206Y-122857664D01*
X171381202Y-122857671D01*
X171330908Y-122992517D01*
X171324501Y-123052116D01*
X171324500Y-123052135D01*
X171324500Y-124947870D01*
X171324501Y-124947876D01*
X171330908Y-125007483D01*
X171381202Y-125142328D01*
X171381206Y-125142335D01*
X171467452Y-125257544D01*
X171467455Y-125257547D01*
X171582664Y-125343793D01*
X171582671Y-125343797D01*
X171627618Y-125360561D01*
X171717517Y-125394091D01*
X171777127Y-125400500D01*
X172000500Y-125400499D01*
X172067539Y-125420183D01*
X172113294Y-125472987D01*
X172124500Y-125524499D01*
X172124500Y-126474903D01*
X172104815Y-126541942D01*
X172088181Y-126562584D01*
X171787584Y-126863181D01*
X171726261Y-126896666D01*
X171699903Y-126899500D01*
X170111801Y-126899500D01*
X170044762Y-126879815D01*
X170002747Y-126834519D01*
X170000924Y-126831151D01*
X169873983Y-126636852D01*
X169873980Y-126636849D01*
X169873979Y-126636847D01*
X169716784Y-126466087D01*
X169716779Y-126466083D01*
X169716777Y-126466081D01*
X169533634Y-126323535D01*
X169533628Y-126323531D01*
X169329504Y-126213064D01*
X169329495Y-126213061D01*
X169109984Y-126137702D01*
X168919450Y-126105908D01*
X168881049Y-126099500D01*
X168648951Y-126099500D01*
X168610550Y-126105908D01*
X168420015Y-126137702D01*
X168200504Y-126213061D01*
X168200495Y-126213064D01*
X167996371Y-126323531D01*
X167996365Y-126323535D01*
X167813222Y-126466081D01*
X167813218Y-126466085D01*
X167813216Y-126466086D01*
X167813216Y-126466087D01*
X167805101Y-126474903D01*
X167804866Y-126475158D01*
X167744979Y-126511148D01*
X167675141Y-126509047D01*
X167617525Y-126469522D01*
X167597455Y-126434507D01*
X167568797Y-126357671D01*
X167568793Y-126357664D01*
X167482547Y-126242455D01*
X167482544Y-126242452D01*
X167367335Y-126156206D01*
X167367328Y-126156202D01*
X167232482Y-126105908D01*
X167232483Y-126105908D01*
X167172883Y-126099501D01*
X167172881Y-126099500D01*
X167172873Y-126099500D01*
X167172864Y-126099500D01*
X165277129Y-126099500D01*
X165277123Y-126099501D01*
X165217516Y-126105908D01*
X165082671Y-126156202D01*
X165082664Y-126156206D01*
X164967455Y-126242452D01*
X164967452Y-126242455D01*
X164881206Y-126357664D01*
X164881202Y-126357671D01*
X164830908Y-126492517D01*
X164824501Y-126552116D01*
X164824500Y-126552135D01*
X164824500Y-128447870D01*
X164824501Y-128447876D01*
X164830908Y-128507483D01*
X164881202Y-128642328D01*
X164881206Y-128642335D01*
X164967452Y-128757544D01*
X164967455Y-128757547D01*
X165082664Y-128843793D01*
X165082671Y-128843797D01*
X165127618Y-128860561D01*
X165217517Y-128894091D01*
X165277127Y-128900500D01*
X165500500Y-128900499D01*
X165567539Y-128920183D01*
X165613294Y-128972987D01*
X165624500Y-129024499D01*
X165624500Y-129974903D01*
X165604815Y-130041942D01*
X165588181Y-130062584D01*
X165287584Y-130363181D01*
X165226261Y-130396666D01*
X165199903Y-130399500D01*
X163611801Y-130399500D01*
X163544762Y-130379815D01*
X163502747Y-130334519D01*
X163500924Y-130331151D01*
X163373983Y-130136852D01*
X163373980Y-130136849D01*
X163373979Y-130136847D01*
X163216784Y-129966087D01*
X163216779Y-129966083D01*
X163216777Y-129966081D01*
X163033634Y-129823535D01*
X163033628Y-129823531D01*
X162829504Y-129713064D01*
X162829495Y-129713061D01*
X162609984Y-129637702D01*
X162419450Y-129605908D01*
X162381049Y-129599500D01*
X162148951Y-129599500D01*
X162110550Y-129605908D01*
X161920015Y-129637702D01*
X161700504Y-129713061D01*
X161700495Y-129713064D01*
X161496371Y-129823531D01*
X161496365Y-129823535D01*
X161313222Y-129966081D01*
X161313218Y-129966085D01*
X161313216Y-129966086D01*
X161313216Y-129966087D01*
X161305101Y-129974903D01*
X161304866Y-129975158D01*
X161244979Y-130011148D01*
X161175141Y-130009047D01*
X161117525Y-129969522D01*
X161097455Y-129934507D01*
X161068797Y-129857671D01*
X161068793Y-129857664D01*
X160982547Y-129742455D01*
X160982544Y-129742452D01*
X160867335Y-129656206D01*
X160867328Y-129656202D01*
X160732482Y-129605908D01*
X160732483Y-129605908D01*
X160672883Y-129599501D01*
X160672881Y-129599500D01*
X160672873Y-129599500D01*
X160672864Y-129599500D01*
X158777129Y-129599500D01*
X158777123Y-129599501D01*
X158717516Y-129605908D01*
X158582671Y-129656202D01*
X158582664Y-129656206D01*
X158467455Y-129742452D01*
X158467452Y-129742455D01*
X158381206Y-129857664D01*
X158381202Y-129857671D01*
X158330908Y-129992517D01*
X158324501Y-130052116D01*
X158324500Y-130052135D01*
X158324500Y-131947870D01*
X158324501Y-131947876D01*
X158330908Y-132007483D01*
X158381202Y-132142328D01*
X158381204Y-132142331D01*
X158425265Y-132201189D01*
X158449683Y-132266652D01*
X158434832Y-132334925D01*
X158385427Y-132384331D01*
X158325999Y-132399500D01*
X157111801Y-132399500D01*
X157044762Y-132379815D01*
X157002747Y-132334519D01*
X157000924Y-132331151D01*
X156873983Y-132136852D01*
X156873980Y-132136849D01*
X156873979Y-132136847D01*
X156716784Y-131966087D01*
X156716779Y-131966083D01*
X156716777Y-131966081D01*
X156533634Y-131823535D01*
X156533628Y-131823531D01*
X156329504Y-131713064D01*
X156329495Y-131713061D01*
X156109984Y-131637702D01*
X155919450Y-131605908D01*
X155881049Y-131599500D01*
X155648951Y-131599500D01*
X155610550Y-131605908D01*
X155420015Y-131637702D01*
X155200504Y-131713061D01*
X155200495Y-131713064D01*
X154996371Y-131823531D01*
X154996365Y-131823535D01*
X154813222Y-131966081D01*
X154813218Y-131966085D01*
X154804866Y-131975158D01*
X154744979Y-132011148D01*
X154675141Y-132009047D01*
X154617525Y-131969522D01*
X154597455Y-131934507D01*
X154568797Y-131857671D01*
X154568793Y-131857664D01*
X154482547Y-131742455D01*
X154482544Y-131742452D01*
X154367335Y-131656206D01*
X154367328Y-131656202D01*
X154232482Y-131605908D01*
X154232483Y-131605908D01*
X154172883Y-131599501D01*
X154172881Y-131599500D01*
X154172873Y-131599500D01*
X154172864Y-131599500D01*
X152277129Y-131599500D01*
X152277123Y-131599501D01*
X152217516Y-131605908D01*
X152082671Y-131656202D01*
X152082664Y-131656206D01*
X151967456Y-131742452D01*
X151967455Y-131742453D01*
X151967454Y-131742454D01*
X151891589Y-131843797D01*
X151887087Y-131849811D01*
X151831153Y-131891682D01*
X151787820Y-131899500D01*
X150611801Y-131899500D01*
X150544762Y-131879815D01*
X150502747Y-131834519D01*
X150500924Y-131831151D01*
X150373983Y-131636852D01*
X150373980Y-131636849D01*
X150373979Y-131636847D01*
X150216784Y-131466087D01*
X150216779Y-131466083D01*
X150216777Y-131466081D01*
X150033634Y-131323535D01*
X150033628Y-131323531D01*
X149829504Y-131213064D01*
X149829495Y-131213061D01*
X149609984Y-131137702D01*
X149419450Y-131105908D01*
X149381049Y-131099500D01*
X149148951Y-131099500D01*
X149110550Y-131105908D01*
X148920015Y-131137702D01*
X148700504Y-131213061D01*
X148700495Y-131213064D01*
X148496371Y-131323531D01*
X148496365Y-131323535D01*
X148313222Y-131466081D01*
X148313218Y-131466085D01*
X148304866Y-131475158D01*
X148244979Y-131511148D01*
X148175141Y-131509047D01*
X148117525Y-131469522D01*
X148097455Y-131434507D01*
X148068797Y-131357671D01*
X148068793Y-131357664D01*
X147982547Y-131242455D01*
X147982544Y-131242452D01*
X147867335Y-131156206D01*
X147867328Y-131156202D01*
X147732482Y-131105908D01*
X147732483Y-131105908D01*
X147672883Y-131099501D01*
X147672881Y-131099500D01*
X147672873Y-131099500D01*
X147672864Y-131099500D01*
X145777129Y-131099500D01*
X145777123Y-131099501D01*
X145717516Y-131105908D01*
X145582671Y-131156202D01*
X145582664Y-131156206D01*
X145467456Y-131242452D01*
X145467455Y-131242453D01*
X145467454Y-131242454D01*
X145387087Y-131349811D01*
X145331153Y-131391682D01*
X145287820Y-131399500D01*
X144111801Y-131399500D01*
X144044762Y-131379815D01*
X144002747Y-131334519D01*
X144000924Y-131331151D01*
X143873983Y-131136852D01*
X143873980Y-131136849D01*
X143873979Y-131136847D01*
X143716784Y-130966087D01*
X143716779Y-130966083D01*
X143716777Y-130966081D01*
X143533634Y-130823535D01*
X143533628Y-130823531D01*
X143329504Y-130713064D01*
X143329495Y-130713061D01*
X143109984Y-130637702D01*
X142919450Y-130605908D01*
X142881049Y-130599500D01*
X142648951Y-130599500D01*
X142610550Y-130605908D01*
X142420015Y-130637702D01*
X142200504Y-130713061D01*
X142200495Y-130713064D01*
X141996371Y-130823531D01*
X141996365Y-130823535D01*
X141813222Y-130966081D01*
X141813218Y-130966085D01*
X141804866Y-130975158D01*
X141744979Y-131011148D01*
X141675141Y-131009047D01*
X141617525Y-130969522D01*
X141597455Y-130934507D01*
X141568797Y-130857671D01*
X141568793Y-130857664D01*
X141482547Y-130742455D01*
X141482544Y-130742452D01*
X141367335Y-130656206D01*
X141367328Y-130656202D01*
X141232482Y-130605908D01*
X141232483Y-130605908D01*
X141172883Y-130599501D01*
X141172881Y-130599500D01*
X141172873Y-130599500D01*
X141172865Y-130599500D01*
X140949500Y-130599500D01*
X140882461Y-130579815D01*
X140836706Y-130527011D01*
X140825500Y-130475500D01*
X140825500Y-128314059D01*
X140825501Y-128314046D01*
X140825501Y-128145945D01*
X140825501Y-128145943D01*
X140784577Y-127993215D01*
X140755639Y-127943095D01*
X140705520Y-127856284D01*
X140593716Y-127744480D01*
X140593715Y-127744479D01*
X140589385Y-127740149D01*
X140589374Y-127740139D01*
X139987590Y-127138355D01*
X139987588Y-127138352D01*
X139868717Y-127019481D01*
X139868716Y-127019480D01*
X139781904Y-126969360D01*
X139781904Y-126969359D01*
X139781900Y-126969358D01*
X139731785Y-126940423D01*
X139579057Y-126899499D01*
X139420943Y-126899499D01*
X139413347Y-126899499D01*
X139413331Y-126899500D01*
X137386801Y-126899500D01*
X137319762Y-126879815D01*
X137277747Y-126834519D01*
X137275924Y-126831151D01*
X137148983Y-126636852D01*
X137148980Y-126636849D01*
X137148979Y-126636847D01*
X136991784Y-126466087D01*
X136991779Y-126466083D01*
X136991777Y-126466081D01*
X136808634Y-126323535D01*
X136808628Y-126323531D01*
X136604504Y-126213064D01*
X136604495Y-126213061D01*
X136384984Y-126137702D01*
X136194450Y-126105908D01*
X136156049Y-126099500D01*
X135923951Y-126099500D01*
X135885550Y-126105908D01*
X135695015Y-126137702D01*
X135475504Y-126213061D01*
X135475495Y-126213064D01*
X135271371Y-126323531D01*
X135271365Y-126323535D01*
X135088222Y-126466081D01*
X135088218Y-126466085D01*
X135088216Y-126466086D01*
X135088216Y-126466087D01*
X135080101Y-126474903D01*
X135079866Y-126475158D01*
X135019979Y-126511148D01*
X134950141Y-126509047D01*
X134892525Y-126469522D01*
X134872455Y-126434507D01*
X134843797Y-126357671D01*
X134843793Y-126357664D01*
X134757547Y-126242455D01*
X134757544Y-126242452D01*
X134642335Y-126156206D01*
X134642328Y-126156202D01*
X134507482Y-126105908D01*
X134507483Y-126105908D01*
X134447883Y-126099501D01*
X134447881Y-126099500D01*
X134447873Y-126099500D01*
X134447864Y-126099500D01*
X132552129Y-126099500D01*
X132552123Y-126099501D01*
X132492516Y-126105908D01*
X132357671Y-126156202D01*
X132357664Y-126156206D01*
X132242455Y-126242452D01*
X132242452Y-126242455D01*
X132156206Y-126357664D01*
X132156202Y-126357671D01*
X132105908Y-126492517D01*
X132099501Y-126552116D01*
X132099500Y-126552135D01*
X132099500Y-128447870D01*
X132099501Y-128447876D01*
X132105908Y-128507483D01*
X132156202Y-128642328D01*
X132156206Y-128642335D01*
X132242452Y-128757544D01*
X132242455Y-128757547D01*
X132357664Y-128843793D01*
X132357671Y-128843797D01*
X132402618Y-128860561D01*
X132492517Y-128894091D01*
X132552127Y-128900500D01*
X132775500Y-128900499D01*
X132842539Y-128920183D01*
X132888294Y-128972987D01*
X132899500Y-129024499D01*
X132899500Y-130913330D01*
X132899499Y-130913348D01*
X132899499Y-131079054D01*
X132899498Y-131079054D01*
X132940424Y-131231789D01*
X132940425Y-131231790D01*
X132966672Y-131277250D01*
X132966673Y-131277252D01*
X133019475Y-131368709D01*
X133019481Y-131368717D01*
X133138349Y-131487585D01*
X133138355Y-131487590D01*
X133563181Y-131912416D01*
X133596666Y-131973739D01*
X133599500Y-132000097D01*
X133599500Y-133447870D01*
X133599501Y-133447876D01*
X133606738Y-133515196D01*
X133604260Y-133515462D01*
X133601163Y-133573053D01*
X133560286Y-133629717D01*
X133495263Y-133655287D01*
X133431215Y-133643872D01*
X133414762Y-133636090D01*
X133411125Y-133634296D01*
X132323113Y-133075434D01*
X132319534Y-133073521D01*
X131250374Y-132479351D01*
X131246860Y-132477322D01*
X130668819Y-132130857D01*
X130621437Y-132079508D01*
X130609339Y-132010694D01*
X130636365Y-131946263D01*
X130693934Y-131906671D01*
X130732568Y-131900499D01*
X131447871Y-131900499D01*
X131447872Y-131900499D01*
X131507483Y-131894091D01*
X131642331Y-131843796D01*
X131757546Y-131757546D01*
X131843796Y-131642331D01*
X131894091Y-131507483D01*
X131900500Y-131447873D01*
X131900499Y-129552128D01*
X131894091Y-129492517D01*
X131843796Y-129357669D01*
X131843795Y-129357668D01*
X131843793Y-129357664D01*
X131757547Y-129242455D01*
X131757544Y-129242452D01*
X131642335Y-129156206D01*
X131642328Y-129156202D01*
X131507482Y-129105908D01*
X131507483Y-129105908D01*
X131447883Y-129099501D01*
X131447881Y-129099500D01*
X131447873Y-129099500D01*
X131447865Y-129099500D01*
X130000097Y-129099500D01*
X129933058Y-129079815D01*
X129912416Y-129063181D01*
X128104164Y-127254929D01*
X128070679Y-127193606D01*
X128075662Y-127123920D01*
X128097456Y-127065487D01*
X128139326Y-127009557D01*
X128204791Y-126985141D01*
X128273063Y-126999993D01*
X128304863Y-127024840D01*
X128313216Y-127033913D01*
X128313219Y-127033915D01*
X128313222Y-127033918D01*
X128496365Y-127176464D01*
X128496371Y-127176468D01*
X128496374Y-127176470D01*
X128700497Y-127286936D01*
X128814487Y-127326068D01*
X128920015Y-127362297D01*
X128920017Y-127362297D01*
X128920019Y-127362298D01*
X129148951Y-127400500D01*
X129148952Y-127400500D01*
X129381048Y-127400500D01*
X129381049Y-127400500D01*
X129609981Y-127362298D01*
X129829503Y-127286936D01*
X130033626Y-127176470D01*
X130216784Y-127033913D01*
X130373979Y-126863153D01*
X130500924Y-126668849D01*
X130594157Y-126456300D01*
X130651134Y-126231305D01*
X130651135Y-126231297D01*
X130670300Y-126000006D01*
X130670300Y-125999993D01*
X130651135Y-125768702D01*
X130651133Y-125768691D01*
X130594157Y-125543699D01*
X130500924Y-125331151D01*
X130373983Y-125136852D01*
X130373980Y-125136849D01*
X130373979Y-125136847D01*
X130216784Y-124966087D01*
X130216779Y-124966083D01*
X130216777Y-124966081D01*
X130033634Y-124823535D01*
X130033623Y-124823528D01*
X129930481Y-124767709D01*
X129880891Y-124718489D01*
X129865500Y-124658655D01*
X129865500Y-123354060D01*
X129865501Y-123354047D01*
X129865501Y-123185944D01*
X129865501Y-123185943D01*
X129824577Y-123033216D01*
X129787804Y-122969522D01*
X129745524Y-122896290D01*
X129745518Y-122896282D01*
X129672764Y-122823528D01*
X129497960Y-122648725D01*
X129497959Y-122648723D01*
X129368717Y-122519481D01*
X129368716Y-122519480D01*
X129281904Y-122469360D01*
X129281904Y-122469359D01*
X129281900Y-122469358D01*
X129231785Y-122440423D01*
X129079057Y-122399499D01*
X128920943Y-122399499D01*
X128913347Y-122399499D01*
X128913331Y-122399500D01*
X123300098Y-122399500D01*
X123233059Y-122379815D01*
X123212417Y-122363181D01*
X123136819Y-122287583D01*
X123103334Y-122226260D01*
X123100500Y-122199902D01*
X123100500Y-121024499D01*
X123120185Y-120957460D01*
X123172989Y-120911705D01*
X123224500Y-120900499D01*
X123447871Y-120900499D01*
X123447872Y-120900499D01*
X123507483Y-120894091D01*
X123642331Y-120843796D01*
X123757546Y-120757546D01*
X123843796Y-120642331D01*
X123872455Y-120565493D01*
X123914326Y-120509559D01*
X123979790Y-120485141D01*
X124048063Y-120499992D01*
X124079866Y-120524843D01*
X124087302Y-120532920D01*
X124088215Y-120533912D01*
X124088222Y-120533918D01*
X124271365Y-120676464D01*
X124271371Y-120676468D01*
X124271374Y-120676470D01*
X124475497Y-120786936D01*
X124589487Y-120826068D01*
X124695015Y-120862297D01*
X124695017Y-120862297D01*
X124695019Y-120862298D01*
X124923951Y-120900500D01*
X124923952Y-120900500D01*
X125156048Y-120900500D01*
X125156049Y-120900500D01*
X125384981Y-120862298D01*
X125604503Y-120786936D01*
X125808626Y-120676470D01*
X125991784Y-120533913D01*
X126148979Y-120363153D01*
X126275924Y-120168849D01*
X126369157Y-119956300D01*
X126426134Y-119731305D01*
X126445300Y-119500000D01*
X126445300Y-119499993D01*
X126426135Y-119268702D01*
X126426133Y-119268691D01*
X126369157Y-119043699D01*
X126275924Y-118831151D01*
X126148983Y-118636852D01*
X126148980Y-118636849D01*
X126148979Y-118636847D01*
X125991784Y-118466087D01*
X125991779Y-118466083D01*
X125991777Y-118466081D01*
X125808634Y-118323535D01*
X125808623Y-118323528D01*
X125705481Y-118267709D01*
X125655891Y-118218489D01*
X125640500Y-118158655D01*
X125640500Y-117460946D01*
X125640500Y-117460943D01*
X125624037Y-117399500D01*
X125599577Y-117308215D01*
X125555449Y-117231784D01*
X125555449Y-117231782D01*
X125520524Y-117171290D01*
X125520521Y-117171286D01*
X125520520Y-117171284D01*
X125408716Y-117059480D01*
X125408715Y-117059479D01*
X125404385Y-117055149D01*
X125404374Y-117055139D01*
X124987590Y-116638355D01*
X124987588Y-116638352D01*
X124868717Y-116519481D01*
X124868716Y-116519480D01*
X124781904Y-116469360D01*
X124781904Y-116469359D01*
X124781900Y-116469358D01*
X124731785Y-116440423D01*
X124579057Y-116399499D01*
X124420943Y-116399499D01*
X124413347Y-116399499D01*
X124413331Y-116399500D01*
X119300098Y-116399500D01*
X119233059Y-116379815D01*
X119212417Y-116363181D01*
X118636819Y-115787583D01*
X118603334Y-115726260D01*
X118600500Y-115699902D01*
X118600500Y-114524499D01*
X118620185Y-114457460D01*
X118672989Y-114411705D01*
X118724500Y-114400499D01*
X118947871Y-114400499D01*
X118947872Y-114400499D01*
X119007483Y-114394091D01*
X119142331Y-114343796D01*
X119257546Y-114257546D01*
X119343796Y-114142331D01*
X119372455Y-114065493D01*
X119414326Y-114009559D01*
X119479790Y-113985141D01*
X119548063Y-113999992D01*
X119579866Y-114024843D01*
X119587302Y-114032920D01*
X119588215Y-114033912D01*
X119588222Y-114033918D01*
X119771365Y-114176464D01*
X119771371Y-114176468D01*
X119771374Y-114176470D01*
X119975497Y-114286936D01*
X120089487Y-114326068D01*
X120195015Y-114362297D01*
X120195017Y-114362297D01*
X120195019Y-114362298D01*
X120423951Y-114400500D01*
X120423952Y-114400500D01*
X120656048Y-114400500D01*
X120656049Y-114400500D01*
X120884981Y-114362298D01*
X121104503Y-114286936D01*
X121308626Y-114176470D01*
X121350551Y-114143839D01*
X121433779Y-114079060D01*
X121491784Y-114033913D01*
X121648979Y-113863153D01*
X121775924Y-113668849D01*
X121869157Y-113456300D01*
X121926134Y-113231305D01*
X121926135Y-113231297D01*
X121945300Y-113000006D01*
X121945300Y-112999993D01*
X121926135Y-112768702D01*
X121926133Y-112768691D01*
X121869157Y-112543699D01*
X121775924Y-112331151D01*
X121648983Y-112136852D01*
X121648980Y-112136849D01*
X121648979Y-112136847D01*
X121491784Y-111966087D01*
X121491779Y-111966083D01*
X121491777Y-111966081D01*
X121308634Y-111823535D01*
X121308623Y-111823528D01*
X121205481Y-111767709D01*
X121155891Y-111718489D01*
X121140500Y-111658655D01*
X121140500Y-110960944D01*
X121140499Y-110960939D01*
X121139392Y-110956807D01*
X121139390Y-110956798D01*
X121099577Y-110808215D01*
X121055449Y-110731784D01*
X121055449Y-110731782D01*
X121020524Y-110671290D01*
X121020521Y-110671286D01*
X121020520Y-110671284D01*
X120908716Y-110559480D01*
X120908715Y-110559479D01*
X120904385Y-110555149D01*
X120904374Y-110555139D01*
X120487590Y-110138355D01*
X120487588Y-110138352D01*
X120368717Y-110019481D01*
X120368716Y-110019480D01*
X120281904Y-109969360D01*
X120281904Y-109969359D01*
X120281900Y-109969358D01*
X120231785Y-109940423D01*
X120079057Y-109899499D01*
X119920943Y-109899499D01*
X119913347Y-109899499D01*
X119913331Y-109899500D01*
X117300098Y-109899500D01*
X117233059Y-109879815D01*
X117212417Y-109863181D01*
X116861819Y-109512583D01*
X116828334Y-109451260D01*
X116825500Y-109424902D01*
X116825500Y-108024499D01*
X116845185Y-107957460D01*
X116897989Y-107911705D01*
X116949500Y-107900499D01*
X117172871Y-107900499D01*
X117172872Y-107900499D01*
X117232483Y-107894091D01*
X117367331Y-107843796D01*
X117482546Y-107757546D01*
X117568796Y-107642331D01*
X117597455Y-107565493D01*
X117639326Y-107509559D01*
X117704790Y-107485141D01*
X117773063Y-107499992D01*
X117804866Y-107524843D01*
X117812302Y-107532920D01*
X117813215Y-107533912D01*
X117813222Y-107533918D01*
X117996365Y-107676464D01*
X117996371Y-107676468D01*
X117996374Y-107676470D01*
X118200497Y-107786936D01*
X118314487Y-107826068D01*
X118420015Y-107862297D01*
X118420017Y-107862297D01*
X118420019Y-107862298D01*
X118648951Y-107900500D01*
X118648952Y-107900500D01*
X118881048Y-107900500D01*
X118881049Y-107900500D01*
X119109981Y-107862298D01*
X119329503Y-107786936D01*
X119533626Y-107676470D01*
X119716784Y-107533913D01*
X119873979Y-107363153D01*
X120000924Y-107168849D01*
X120094157Y-106956300D01*
X120151134Y-106731305D01*
X120170300Y-106500000D01*
X120170300Y-106499993D01*
X120151135Y-106268702D01*
X120151133Y-106268691D01*
X120094157Y-106043699D01*
X120000924Y-105831151D01*
X119873983Y-105636852D01*
X119873980Y-105636849D01*
X119873979Y-105636847D01*
X119716784Y-105466087D01*
X119716779Y-105466083D01*
X119716777Y-105466081D01*
X119533634Y-105323535D01*
X119533623Y-105323528D01*
X119430481Y-105267709D01*
X119380891Y-105218489D01*
X119365500Y-105158655D01*
X119365500Y-104854060D01*
X119365501Y-104854047D01*
X119365501Y-104685944D01*
X119365501Y-104685943D01*
X119324577Y-104533216D01*
X119324573Y-104533209D01*
X119245524Y-104396290D01*
X119245518Y-104396282D01*
X119245489Y-104396253D01*
X118997960Y-104148725D01*
X118997959Y-104148723D01*
X118868716Y-104019480D01*
X118868714Y-104019479D01*
X118781904Y-103969360D01*
X118781904Y-103969359D01*
X118781900Y-103969358D01*
X118731785Y-103940423D01*
X118579057Y-103899499D01*
X118420943Y-103899499D01*
X118413347Y-103899499D01*
X118413331Y-103899500D01*
X117300098Y-103899500D01*
X117233059Y-103879815D01*
X117212417Y-103863181D01*
X116861819Y-103512583D01*
X116828334Y-103451260D01*
X116825500Y-103424902D01*
X116825500Y-101524499D01*
X116845185Y-101457460D01*
X116897989Y-101411705D01*
X116949500Y-101400499D01*
X117172871Y-101400499D01*
X117172872Y-101400499D01*
X117232483Y-101394091D01*
X117367331Y-101343796D01*
X117482546Y-101257546D01*
X117568796Y-101142331D01*
X117597455Y-101065493D01*
X117639326Y-101009559D01*
X117704790Y-100985141D01*
X117773063Y-100999992D01*
X117804866Y-101024843D01*
X117812302Y-101032920D01*
X117813215Y-101033912D01*
X117813222Y-101033918D01*
X117996365Y-101176464D01*
X117996371Y-101176468D01*
X117996374Y-101176470D01*
X118200497Y-101286936D01*
X118314487Y-101326068D01*
X118420015Y-101362297D01*
X118420017Y-101362297D01*
X118420019Y-101362298D01*
X118648951Y-101400500D01*
X118648952Y-101400500D01*
X118881048Y-101400500D01*
X118881049Y-101400500D01*
X119109981Y-101362298D01*
X119329503Y-101286936D01*
X119533626Y-101176470D01*
X119716784Y-101033913D01*
X119873979Y-100863153D01*
X120000924Y-100668849D01*
X120094157Y-100456300D01*
X120151134Y-100231305D01*
X120151135Y-100231297D01*
X120170300Y-100000006D01*
X120170300Y-100000000D01*
X121507913Y-100000000D01*
X121527837Y-101065341D01*
X121587584Y-102129228D01*
X121687065Y-103190095D01*
X121826146Y-104246519D01*
X122004631Y-105297007D01*
X122222270Y-106340088D01*
X122475993Y-107363147D01*
X122478758Y-107374294D01*
X122514971Y-107499992D01*
X122773738Y-108398195D01*
X123106798Y-109410349D01*
X123477461Y-110409320D01*
X123885226Y-111393751D01*
X124329517Y-112362252D01*
X124534697Y-112768691D01*
X124809708Y-113313458D01*
X125317953Y-114233057D01*
X125325134Y-114246050D01*
X125357700Y-114300096D01*
X125875061Y-115158704D01*
X126155938Y-115587695D01*
X126458734Y-116050165D01*
X127075335Y-116919183D01*
X127506064Y-117480518D01*
X127723990Y-117764525D01*
X128403804Y-118585029D01*
X129113823Y-119379540D01*
X129452672Y-119731305D01*
X129853052Y-120146947D01*
X130077500Y-120363153D01*
X130620460Y-120886177D01*
X131414971Y-121596196D01*
X132235475Y-122276010D01*
X132487454Y-122469360D01*
X133080816Y-122924664D01*
X133949834Y-123541265D01*
X133977801Y-123559576D01*
X134841296Y-124124939D01*
X135753957Y-124674870D01*
X136686542Y-125190292D01*
X137637747Y-125670482D01*
X138606242Y-126114771D01*
X139421774Y-126452575D01*
X139590679Y-126522538D01*
X140589650Y-126893201D01*
X140589661Y-126893205D01*
X141601810Y-127226263D01*
X142625706Y-127521242D01*
X143659914Y-127777730D01*
X144702991Y-127995368D01*
X145753475Y-128173853D01*
X146809899Y-128312934D01*
X147532968Y-128380738D01*
X147870771Y-128412415D01*
X147870776Y-128412415D01*
X147870784Y-128412416D01*
X148934647Y-128472162D01*
X150000000Y-128492086D01*
X151065353Y-128472162D01*
X152129216Y-128412416D01*
X152129224Y-128412415D01*
X152129228Y-128412415D01*
X152322417Y-128394298D01*
X153190101Y-128312934D01*
X154246525Y-128173853D01*
X155297009Y-127995368D01*
X156340086Y-127777730D01*
X157374294Y-127521242D01*
X158398190Y-127226263D01*
X159410339Y-126893205D01*
X160409328Y-126522535D01*
X161393758Y-126114771D01*
X162362253Y-125670482D01*
X163313458Y-125190292D01*
X164246043Y-124674870D01*
X165158704Y-124124939D01*
X166050164Y-123541266D01*
X166919176Y-122924669D01*
X166956161Y-122896290D01*
X167123730Y-122767709D01*
X167764525Y-122276010D01*
X168585029Y-121596196D01*
X169379540Y-120886177D01*
X170146947Y-120146947D01*
X170886177Y-119379540D01*
X171596196Y-118585029D01*
X172276010Y-117764525D01*
X172822661Y-117052116D01*
X172924664Y-116919183D01*
X172968309Y-116857671D01*
X173541266Y-116050164D01*
X174124939Y-115158704D01*
X174674870Y-114246043D01*
X175190292Y-113313458D01*
X175670482Y-112362253D01*
X176114771Y-111393758D01*
X176522535Y-110409328D01*
X176893205Y-109410339D01*
X177226263Y-108398190D01*
X177521242Y-107374294D01*
X177777730Y-106340086D01*
X177995368Y-105297009D01*
X178173853Y-104246525D01*
X178312934Y-103190101D01*
X178412416Y-102129216D01*
X178472162Y-101065353D01*
X178492086Y-100000000D01*
X178472162Y-98934647D01*
X178412416Y-97870784D01*
X178389957Y-97631284D01*
X178366482Y-97380939D01*
X178312934Y-96809899D01*
X178173853Y-95753475D01*
X177995368Y-94702991D01*
X177777730Y-93659914D01*
X177521242Y-92625706D01*
X177226263Y-91601810D01*
X176893205Y-90589661D01*
X176843904Y-90456790D01*
X176522538Y-89590679D01*
X176324890Y-89113515D01*
X176114771Y-88606242D01*
X175670482Y-87637747D01*
X175190292Y-86686542D01*
X174674870Y-85753957D01*
X174124939Y-84841296D01*
X173554049Y-83969360D01*
X173541265Y-83949834D01*
X172924664Y-83080816D01*
X172517044Y-82549597D01*
X172276010Y-82235475D01*
X171596196Y-81414971D01*
X170886177Y-80620460D01*
X170324484Y-80037357D01*
X170146947Y-79853052D01*
X169712447Y-79434507D01*
X169379540Y-79113823D01*
X168585029Y-78403804D01*
X167764525Y-77723990D01*
X167415450Y-77456135D01*
X166919183Y-77075335D01*
X166050165Y-76458734D01*
X165731925Y-76250371D01*
X165158704Y-75875061D01*
X164481108Y-75466770D01*
X164246050Y-75325134D01*
X163977063Y-75176470D01*
X163313458Y-74809708D01*
X162601369Y-74450229D01*
X162362252Y-74329517D01*
X161393751Y-73885226D01*
X160409320Y-73477461D01*
X159410349Y-73106798D01*
X158398195Y-72773738D01*
X157598029Y-72543215D01*
X157374294Y-72478758D01*
X157374289Y-72478756D01*
X157374283Y-72478755D01*
X156340088Y-72222270D01*
X155297007Y-72004631D01*
X154246519Y-71826146D01*
X153190095Y-71687065D01*
X152129228Y-71587584D01*
X151065341Y-71527837D01*
X150000000Y-71507913D01*
X148934658Y-71527837D01*
X147870771Y-71587584D01*
X146809904Y-71687065D01*
X145753480Y-71826146D01*
X144702992Y-72004631D01*
X143659911Y-72222270D01*
X142625716Y-72478755D01*
X141601804Y-72773738D01*
X140589650Y-73106798D01*
X139590679Y-73477461D01*
X138606248Y-73885226D01*
X137637747Y-74329517D01*
X136686540Y-74809709D01*
X135753949Y-75325134D01*
X135109388Y-75713520D01*
X134841296Y-75875061D01*
X134665447Y-75990196D01*
X133949834Y-76458734D01*
X133080816Y-77075335D01*
X132307646Y-77668611D01*
X132235475Y-77723990D01*
X132023644Y-77899499D01*
X131414969Y-78403805D01*
X130899593Y-78864374D01*
X130635369Y-79100500D01*
X130620457Y-79113826D01*
X129853052Y-79853052D01*
X129113826Y-80620457D01*
X128403805Y-81414969D01*
X127999180Y-81903333D01*
X127878453Y-82049046D01*
X127723982Y-82235485D01*
X127075335Y-83080816D01*
X126458734Y-83949834D01*
X126085088Y-84520516D01*
X125875061Y-84841296D01*
X125875055Y-84841306D01*
X125325134Y-85753949D01*
X124809709Y-86686540D01*
X124329517Y-87637747D01*
X123885226Y-88606248D01*
X123477461Y-89590679D01*
X123106798Y-90589650D01*
X122773738Y-91601804D01*
X122478755Y-92625716D01*
X122222270Y-93659911D01*
X122004631Y-94702992D01*
X121826146Y-95753480D01*
X121687065Y-96809904D01*
X121587584Y-97870771D01*
X121527837Y-98934658D01*
X121507913Y-100000000D01*
X120170300Y-100000000D01*
X120170300Y-99999993D01*
X120151135Y-99768702D01*
X120151133Y-99768691D01*
X120094157Y-99543699D01*
X120000924Y-99331151D01*
X119873983Y-99136852D01*
X119873980Y-99136849D01*
X119873979Y-99136847D01*
X119716784Y-98966087D01*
X119716779Y-98966083D01*
X119716777Y-98966081D01*
X119533634Y-98823535D01*
X119533623Y-98823528D01*
X119430481Y-98767709D01*
X119380891Y-98718489D01*
X119365500Y-98658655D01*
X119365500Y-98354060D01*
X119365501Y-98354047D01*
X119365501Y-98185944D01*
X119352338Y-98136819D01*
X119324577Y-98033216D01*
X119294152Y-97980518D01*
X119245524Y-97896290D01*
X119245518Y-97896282D01*
X119177948Y-97828712D01*
X118997960Y-97648725D01*
X118997959Y-97648723D01*
X118868717Y-97519481D01*
X118868716Y-97519480D01*
X118781904Y-97469360D01*
X118781904Y-97469359D01*
X118781900Y-97469358D01*
X118731785Y-97440423D01*
X118579057Y-97399499D01*
X118420943Y-97399499D01*
X118413347Y-97399499D01*
X118413331Y-97399500D01*
X117300097Y-97399500D01*
X117233058Y-97379815D01*
X117212416Y-97363181D01*
X117096819Y-97247584D01*
X117063334Y-97186261D01*
X117060500Y-97159903D01*
X117060500Y-95024499D01*
X117080185Y-94957460D01*
X117132989Y-94911705D01*
X117184500Y-94900499D01*
X117407871Y-94900499D01*
X117407872Y-94900499D01*
X117467483Y-94894091D01*
X117602331Y-94843796D01*
X117717546Y-94757546D01*
X117803796Y-94642331D01*
X117832455Y-94565493D01*
X117874326Y-94509559D01*
X117939790Y-94485141D01*
X118008063Y-94499992D01*
X118039866Y-94524843D01*
X118047302Y-94532920D01*
X118048215Y-94533912D01*
X118048222Y-94533918D01*
X118231365Y-94676464D01*
X118231371Y-94676468D01*
X118231374Y-94676470D01*
X118435497Y-94786936D01*
X118549487Y-94826068D01*
X118655015Y-94862297D01*
X118655017Y-94862297D01*
X118655019Y-94862298D01*
X118883951Y-94900500D01*
X118883952Y-94900500D01*
X119116048Y-94900500D01*
X119116049Y-94900500D01*
X119344981Y-94862298D01*
X119564503Y-94786936D01*
X119768626Y-94676470D01*
X119951784Y-94533913D01*
X120108979Y-94363153D01*
X120235924Y-94168849D01*
X120329157Y-93956300D01*
X120386134Y-93731305D01*
X120386135Y-93731297D01*
X120405300Y-93500006D01*
X120405300Y-93499993D01*
X120386135Y-93268702D01*
X120386133Y-93268691D01*
X120329157Y-93043699D01*
X120235924Y-92831151D01*
X120108983Y-92636852D01*
X120108980Y-92636849D01*
X120108979Y-92636847D01*
X119951784Y-92466087D01*
X119951779Y-92466083D01*
X119951777Y-92466081D01*
X119768634Y-92323535D01*
X119768623Y-92323528D01*
X119665481Y-92267709D01*
X119615891Y-92218489D01*
X119600500Y-92158655D01*
X119600500Y-91089060D01*
X119600501Y-91089047D01*
X119600501Y-90920944D01*
X119594755Y-90899499D01*
X119559577Y-90768216D01*
X119527459Y-90712585D01*
X119480524Y-90631290D01*
X119480518Y-90631282D01*
X118861819Y-90012583D01*
X118828334Y-89951260D01*
X118825500Y-89924902D01*
X118825500Y-88524499D01*
X118845185Y-88457460D01*
X118897989Y-88411705D01*
X118949500Y-88400499D01*
X119172871Y-88400499D01*
X119172872Y-88400499D01*
X119232483Y-88394091D01*
X119367331Y-88343796D01*
X119482546Y-88257546D01*
X119568796Y-88142331D01*
X119597455Y-88065493D01*
X119639326Y-88009559D01*
X119704790Y-87985141D01*
X119773063Y-87999992D01*
X119804866Y-88024843D01*
X119812302Y-88032920D01*
X119813215Y-88033912D01*
X119813222Y-88033918D01*
X119996365Y-88176464D01*
X119996371Y-88176468D01*
X119996374Y-88176470D01*
X120200497Y-88286936D01*
X120314487Y-88326068D01*
X120420015Y-88362297D01*
X120420017Y-88362297D01*
X120420019Y-88362298D01*
X120648951Y-88400500D01*
X120648952Y-88400500D01*
X120881048Y-88400500D01*
X120881049Y-88400500D01*
X121109981Y-88362298D01*
X121329503Y-88286936D01*
X121533626Y-88176470D01*
X121716784Y-88033913D01*
X121873979Y-87863153D01*
X122000924Y-87668849D01*
X122094157Y-87456300D01*
X122151134Y-87231305D01*
X122151135Y-87231297D01*
X122170300Y-87000006D01*
X122170300Y-86999993D01*
X122151135Y-86768702D01*
X122151133Y-86768691D01*
X122094157Y-86543699D01*
X122000924Y-86331151D01*
X121873983Y-86136852D01*
X121873980Y-86136849D01*
X121873979Y-86136847D01*
X121716784Y-85966087D01*
X121716779Y-85966083D01*
X121716777Y-85966081D01*
X121533634Y-85823535D01*
X121533623Y-85823528D01*
X121430481Y-85767709D01*
X121380891Y-85718489D01*
X121365500Y-85658655D01*
X121365500Y-82260096D01*
X121385185Y-82193057D01*
X121401815Y-82172419D01*
X121637416Y-81936817D01*
X121698739Y-81903333D01*
X121725097Y-81900499D01*
X123172871Y-81900499D01*
X123172872Y-81900499D01*
X123232483Y-81894091D01*
X123367331Y-81843796D01*
X123482546Y-81757546D01*
X123568796Y-81642331D01*
X123587834Y-81591287D01*
X123597455Y-81565493D01*
X123639326Y-81509559D01*
X123704790Y-81485141D01*
X123773063Y-81499992D01*
X123804866Y-81524843D01*
X123812302Y-81532920D01*
X123813215Y-81533912D01*
X123813222Y-81533918D01*
X123996365Y-81676464D01*
X123996371Y-81676468D01*
X123996374Y-81676470D01*
X124200497Y-81786936D01*
X124314487Y-81826068D01*
X124420015Y-81862297D01*
X124420017Y-81862297D01*
X124420019Y-81862298D01*
X124648951Y-81900500D01*
X124648952Y-81900500D01*
X124881048Y-81900500D01*
X124881049Y-81900500D01*
X125109981Y-81862298D01*
X125329503Y-81786936D01*
X125533626Y-81676470D01*
X125716784Y-81533913D01*
X125873979Y-81363153D01*
X126000924Y-81168849D01*
X126094157Y-80956300D01*
X126151134Y-80731305D01*
X126170300Y-80500000D01*
X126170300Y-80499993D01*
X126151135Y-80268702D01*
X126151133Y-80268691D01*
X126094157Y-80043699D01*
X126000924Y-79831151D01*
X125873983Y-79636852D01*
X125873980Y-79636849D01*
X125873979Y-79636847D01*
X125716784Y-79466087D01*
X125716779Y-79466083D01*
X125716777Y-79466081D01*
X125533634Y-79323535D01*
X125533623Y-79323528D01*
X125430481Y-79267709D01*
X125380891Y-79218489D01*
X125365500Y-79158655D01*
X125365500Y-75035097D01*
X125385185Y-74968058D01*
X125401819Y-74947416D01*
X125612820Y-74736415D01*
X125674143Y-74702930D01*
X125743835Y-74707914D01*
X125799768Y-74749786D01*
X125824185Y-74815250D01*
X125824501Y-74824096D01*
X125824501Y-74947876D01*
X125830908Y-75007483D01*
X125881202Y-75142328D01*
X125881206Y-75142335D01*
X125967452Y-75257544D01*
X125967455Y-75257547D01*
X126082664Y-75343793D01*
X126082671Y-75343797D01*
X126217517Y-75394091D01*
X126217516Y-75394091D01*
X126224444Y-75394835D01*
X126277127Y-75400500D01*
X128172872Y-75400499D01*
X128232483Y-75394091D01*
X128367331Y-75343796D01*
X128482546Y-75257546D01*
X128568796Y-75142331D01*
X128597455Y-75065493D01*
X128639326Y-75009559D01*
X128704790Y-74985141D01*
X128773063Y-74999992D01*
X128804866Y-75024843D01*
X128812302Y-75032920D01*
X128813215Y-75033912D01*
X128813222Y-75033918D01*
X128996365Y-75176464D01*
X128996371Y-75176468D01*
X128996374Y-75176470D01*
X129200497Y-75286936D01*
X129311752Y-75325130D01*
X129420015Y-75362297D01*
X129420017Y-75362297D01*
X129420019Y-75362298D01*
X129648951Y-75400500D01*
X129648952Y-75400500D01*
X129881048Y-75400500D01*
X129881049Y-75400500D01*
X130109981Y-75362298D01*
X130329503Y-75286936D01*
X130533626Y-75176470D01*
X130716784Y-75033913D01*
X130873979Y-74863153D01*
X131000924Y-74668849D01*
X131000926Y-74668843D01*
X131002747Y-74665481D01*
X131051967Y-74615891D01*
X131111801Y-74600500D01*
X132913331Y-74600500D01*
X132913347Y-74600501D01*
X132920943Y-74600501D01*
X133079054Y-74600501D01*
X133079057Y-74600501D01*
X133231785Y-74559577D01*
X133281904Y-74530639D01*
X133368716Y-74480520D01*
X133480520Y-74368716D01*
X133480520Y-74368714D01*
X133490728Y-74358507D01*
X133490730Y-74358504D01*
X134083506Y-73765728D01*
X134083511Y-73765724D01*
X134093714Y-73755520D01*
X134093716Y-73755520D01*
X134205520Y-73643716D01*
X134263264Y-73543700D01*
X134277248Y-73519480D01*
X134284574Y-73506790D01*
X134284575Y-73506789D01*
X134284575Y-73506787D01*
X134284577Y-73506785D01*
X134325501Y-73354057D01*
X134325501Y-73195943D01*
X134325501Y-73188348D01*
X134325500Y-73188330D01*
X134325500Y-72024499D01*
X134345185Y-71957460D01*
X134397989Y-71911705D01*
X134449500Y-71900499D01*
X134672871Y-71900499D01*
X134672872Y-71900499D01*
X134732483Y-71894091D01*
X134867331Y-71843796D01*
X134982546Y-71757546D01*
X135068796Y-71642331D01*
X135068798Y-71642326D01*
X135097455Y-71565493D01*
X135139326Y-71509559D01*
X135204790Y-71485141D01*
X135273063Y-71499992D01*
X135304866Y-71524843D01*
X135307623Y-71527837D01*
X135313215Y-71533912D01*
X135313222Y-71533918D01*
X135496365Y-71676464D01*
X135496371Y-71676468D01*
X135496374Y-71676470D01*
X135646185Y-71757544D01*
X135680854Y-71776306D01*
X135700497Y-71786936D01*
X135746125Y-71802600D01*
X135920015Y-71862297D01*
X135920017Y-71862297D01*
X135920019Y-71862298D01*
X136148951Y-71900500D01*
X136148952Y-71900500D01*
X136381048Y-71900500D01*
X136381049Y-71900500D01*
X136609981Y-71862298D01*
X136829503Y-71786936D01*
X137033626Y-71676470D01*
X137216784Y-71533913D01*
X137373979Y-71363153D01*
X137500924Y-71168849D01*
X137500926Y-71168843D01*
X137502747Y-71165481D01*
X137551967Y-71115891D01*
X137611801Y-71100500D01*
X138138331Y-71100500D01*
X138138347Y-71100501D01*
X138145943Y-71100501D01*
X138304054Y-71100501D01*
X138304057Y-71100501D01*
X138456785Y-71059577D01*
X138506904Y-71030639D01*
X138593716Y-70980520D01*
X138705520Y-70868716D01*
X138705520Y-70868714D01*
X138715728Y-70858507D01*
X138715730Y-70858504D01*
X139637416Y-69936818D01*
X139698739Y-69903333D01*
X139725097Y-69900499D01*
X141172871Y-69900499D01*
X141172872Y-69900499D01*
X141232483Y-69894091D01*
X141367331Y-69843796D01*
X141482546Y-69757546D01*
X141568796Y-69642331D01*
X141570840Y-69636852D01*
X141597455Y-69565493D01*
X141639326Y-69509559D01*
X141704790Y-69485141D01*
X141773063Y-69499992D01*
X141804866Y-69524843D01*
X141812302Y-69532920D01*
X141813215Y-69533912D01*
X141813222Y-69533918D01*
X141996365Y-69676464D01*
X141996371Y-69676468D01*
X141996374Y-69676470D01*
X142200497Y-69786936D01*
X142314487Y-69826068D01*
X142420015Y-69862297D01*
X142420017Y-69862297D01*
X142420019Y-69862298D01*
X142648951Y-69900500D01*
X142648952Y-69900500D01*
X142881048Y-69900500D01*
X142881049Y-69900500D01*
X143109981Y-69862298D01*
X143329503Y-69786936D01*
X143533626Y-69676470D01*
X143716784Y-69533913D01*
X143873979Y-69363153D01*
X144000924Y-69168849D01*
X144000926Y-69168843D01*
X144002747Y-69165481D01*
X144051967Y-69115891D01*
X144111801Y-69100500D01*
X144638331Y-69100500D01*
X144638347Y-69100501D01*
X144645943Y-69100501D01*
X144804054Y-69100501D01*
X144804057Y-69100501D01*
X144956785Y-69059577D01*
X145006904Y-69030639D01*
X145093716Y-68980520D01*
X145205520Y-68868716D01*
X145205520Y-68868714D01*
X145215728Y-68858507D01*
X145215730Y-68858504D01*
X146137416Y-67936818D01*
X146198739Y-67903333D01*
X146225097Y-67900499D01*
X147672871Y-67900499D01*
X147672872Y-67900499D01*
X147732483Y-67894091D01*
X147867331Y-67843796D01*
X147982546Y-67757546D01*
X148068796Y-67642331D01*
X148070840Y-67636852D01*
X148097455Y-67565493D01*
X148139326Y-67509559D01*
X148204790Y-67485141D01*
X148273063Y-67499992D01*
X148304866Y-67524843D01*
X148312302Y-67532920D01*
X148313215Y-67533912D01*
X148313222Y-67533918D01*
X148496365Y-67676464D01*
X148496371Y-67676468D01*
X148496374Y-67676470D01*
X148700497Y-67786936D01*
X148814487Y-67826068D01*
X148920015Y-67862297D01*
X148920017Y-67862297D01*
X148920019Y-67862298D01*
X149148951Y-67900500D01*
X149148952Y-67900500D01*
X149381048Y-67900500D01*
X149381049Y-67900500D01*
X149609981Y-67862298D01*
X149829503Y-67786936D01*
X150033626Y-67676470D01*
X150216784Y-67533913D01*
X150373979Y-67363153D01*
X150500924Y-67168849D01*
X150500926Y-67168843D01*
X150502747Y-67165481D01*
X150551967Y-67115891D01*
X150611801Y-67100500D01*
X151700500Y-67100500D01*
X151767539Y-67120185D01*
X151813294Y-67172989D01*
X151824500Y-67224500D01*
X151824500Y-68447870D01*
X151824501Y-68447876D01*
X151830908Y-68507483D01*
X151881202Y-68642328D01*
X151881206Y-68642335D01*
X151967452Y-68757544D01*
X151967455Y-68757547D01*
X152082664Y-68843793D01*
X152082671Y-68843797D01*
X152217517Y-68894091D01*
X152217516Y-68894091D01*
X152224444Y-68894835D01*
X152277127Y-68900500D01*
X154172872Y-68900499D01*
X154232483Y-68894091D01*
X154367331Y-68843796D01*
X154482546Y-68757546D01*
X154568796Y-68642331D01*
X154597455Y-68565493D01*
X154639326Y-68509559D01*
X154704790Y-68485141D01*
X154773063Y-68499992D01*
X154804866Y-68524843D01*
X154812302Y-68532920D01*
X154813215Y-68533912D01*
X154813222Y-68533918D01*
X154996365Y-68676464D01*
X154996371Y-68676468D01*
X154996374Y-68676470D01*
X155200497Y-68786936D01*
X155307092Y-68823530D01*
X155420015Y-68862297D01*
X155420017Y-68862297D01*
X155420019Y-68862298D01*
X155648951Y-68900500D01*
X155648952Y-68900500D01*
X155881048Y-68900500D01*
X155881049Y-68900500D01*
X156109981Y-68862298D01*
X156161897Y-68844474D01*
X156231693Y-68841324D01*
X156289840Y-68874075D01*
X157780139Y-70364374D01*
X157780149Y-70364385D01*
X157784479Y-70368715D01*
X157784480Y-70368716D01*
X157896284Y-70480520D01*
X157983095Y-70530639D01*
X157983097Y-70530641D01*
X158020305Y-70552123D01*
X158033215Y-70559577D01*
X158185943Y-70600501D01*
X158200501Y-70600501D01*
X158267540Y-70620186D01*
X158313295Y-70672990D01*
X158324501Y-70724501D01*
X158324501Y-70947876D01*
X158330908Y-71007483D01*
X158381202Y-71142328D01*
X158381206Y-71142335D01*
X158467452Y-71257544D01*
X158467455Y-71257547D01*
X158582664Y-71343793D01*
X158582671Y-71343797D01*
X158717517Y-71394091D01*
X158717516Y-71394091D01*
X158724444Y-71394835D01*
X158777127Y-71400500D01*
X160672872Y-71400499D01*
X160732483Y-71394091D01*
X160867331Y-71343796D01*
X160982546Y-71257546D01*
X161068796Y-71142331D01*
X161069699Y-71139910D01*
X161097455Y-71065493D01*
X161139326Y-71009559D01*
X161204790Y-70985141D01*
X161273063Y-70999992D01*
X161304866Y-71024843D01*
X161310202Y-71030639D01*
X161313215Y-71033912D01*
X161313222Y-71033918D01*
X161496365Y-71176464D01*
X161496371Y-71176468D01*
X161496374Y-71176470D01*
X161700497Y-71286936D01*
X161786428Y-71316436D01*
X161920015Y-71362297D01*
X161920017Y-71362297D01*
X161920019Y-71362298D01*
X162148951Y-71400500D01*
X162148952Y-71400500D01*
X162381048Y-71400500D01*
X162381049Y-71400500D01*
X162609981Y-71362298D01*
X162829503Y-71286936D01*
X163033626Y-71176470D01*
X163080599Y-71139910D01*
X163131231Y-71100501D01*
X163216784Y-71033913D01*
X163373979Y-70863153D01*
X163500924Y-70668849D01*
X163500926Y-70668843D01*
X163502747Y-70665481D01*
X163551967Y-70615891D01*
X163611801Y-70600500D01*
X164424903Y-70600500D01*
X164491942Y-70620185D01*
X164512584Y-70636819D01*
X164788181Y-70912416D01*
X164821666Y-70973739D01*
X164824500Y-71000097D01*
X164824500Y-72447870D01*
X164824501Y-72447876D01*
X164830908Y-72507483D01*
X164881202Y-72642328D01*
X164881206Y-72642335D01*
X164967452Y-72757544D01*
X164967455Y-72757547D01*
X165082664Y-72843793D01*
X165082671Y-72843797D01*
X165217517Y-72894091D01*
X165217516Y-72894091D01*
X165224444Y-72894835D01*
X165277127Y-72900500D01*
X167172872Y-72900499D01*
X167232483Y-72894091D01*
X167367331Y-72843796D01*
X167482546Y-72757546D01*
X167568796Y-72642331D01*
X167619091Y-72507483D01*
X167625500Y-72447873D01*
X167625499Y-72337304D01*
X167645183Y-72270268D01*
X167661818Y-72249626D01*
X168322861Y-71588584D01*
X168345667Y-71673694D01*
X168404910Y-71776306D01*
X168488694Y-71860090D01*
X168591306Y-71919333D01*
X168676414Y-71942138D01*
X167966201Y-72652351D01*
X167996649Y-72676050D01*
X168200697Y-72786476D01*
X168200706Y-72786479D01*
X168420139Y-72861811D01*
X168648993Y-72900000D01*
X168881007Y-72900000D01*
X169109860Y-72861811D01*
X169329293Y-72786479D01*
X169329301Y-72786476D01*
X169533355Y-72676047D01*
X169563797Y-72652351D01*
X169563798Y-72652350D01*
X168853585Y-71942137D01*
X168938694Y-71919333D01*
X169041306Y-71860090D01*
X169125090Y-71776306D01*
X169184333Y-71673694D01*
X169207138Y-71588585D01*
X169916186Y-72297633D01*
X170000482Y-72168611D01*
X170093682Y-71956135D01*
X170150638Y-71731218D01*
X170169798Y-71500005D01*
X170169798Y-71499992D01*
X170150638Y-71268781D01*
X170093682Y-71043864D01*
X170000484Y-70831393D01*
X169916186Y-70702365D01*
X169207137Y-71411414D01*
X169184333Y-71326306D01*
X169125090Y-71223694D01*
X169041306Y-71139910D01*
X168938694Y-71080667D01*
X168853584Y-71057861D01*
X169563797Y-70347647D01*
X169563797Y-70347645D01*
X169533360Y-70323955D01*
X169533354Y-70323951D01*
X169329302Y-70213523D01*
X169329293Y-70213520D01*
X169109860Y-70138188D01*
X168881007Y-70100000D01*
X168648993Y-70100000D01*
X168420139Y-70138188D01*
X168200706Y-70213520D01*
X168200697Y-70213523D01*
X167996650Y-70323949D01*
X167966200Y-70347647D01*
X168676415Y-71057861D01*
X168591306Y-71080667D01*
X168488694Y-71139910D01*
X168404910Y-71223694D01*
X168345667Y-71326306D01*
X168322861Y-71411415D01*
X167661818Y-70750372D01*
X167628333Y-70689049D01*
X167625499Y-70662691D01*
X167625499Y-70552129D01*
X167625498Y-70552123D01*
X167619091Y-70492516D01*
X167568797Y-70357671D01*
X167568793Y-70357664D01*
X167482547Y-70242455D01*
X167482544Y-70242452D01*
X167367335Y-70156206D01*
X167367328Y-70156202D01*
X167232482Y-70105908D01*
X167232483Y-70105908D01*
X167172883Y-70099501D01*
X167172881Y-70099500D01*
X167172873Y-70099500D01*
X167172865Y-70099500D01*
X165725097Y-70099500D01*
X165658058Y-70079815D01*
X165637416Y-70063181D01*
X165212590Y-69638355D01*
X165212588Y-69638352D01*
X165093717Y-69519481D01*
X165093709Y-69519475D01*
X165001237Y-69466087D01*
X165001235Y-69466086D01*
X164956790Y-69440425D01*
X164956789Y-69440424D01*
X164944263Y-69437067D01*
X164804057Y-69399499D01*
X164645943Y-69399499D01*
X164638347Y-69399499D01*
X164638331Y-69399500D01*
X163611801Y-69399500D01*
X163544762Y-69379815D01*
X163502747Y-69334519D01*
X163500924Y-69331151D01*
X163373983Y-69136852D01*
X163373980Y-69136849D01*
X163373979Y-69136847D01*
X163216784Y-68966087D01*
X163216779Y-68966083D01*
X163216777Y-68966081D01*
X163033634Y-68823535D01*
X163033628Y-68823531D01*
X162829504Y-68713064D01*
X162829495Y-68713061D01*
X162609984Y-68637702D01*
X162419450Y-68605908D01*
X162381049Y-68599500D01*
X162148951Y-68599500D01*
X162110550Y-68605908D01*
X161920015Y-68637702D01*
X161700504Y-68713061D01*
X161700495Y-68713064D01*
X161496371Y-68823531D01*
X161496365Y-68823535D01*
X161313222Y-68966081D01*
X161313218Y-68966085D01*
X161304866Y-68975158D01*
X161244979Y-69011148D01*
X161175141Y-69009047D01*
X161117525Y-68969522D01*
X161097455Y-68934507D01*
X161068797Y-68857671D01*
X161068793Y-68857664D01*
X160982547Y-68742455D01*
X160982544Y-68742452D01*
X160867335Y-68656206D01*
X160867328Y-68656202D01*
X160732482Y-68605908D01*
X160732483Y-68605908D01*
X160672883Y-68599501D01*
X160672881Y-68599500D01*
X160672873Y-68599500D01*
X160672864Y-68599500D01*
X158777129Y-68599500D01*
X158777123Y-68599501D01*
X158717516Y-68605908D01*
X158582671Y-68656202D01*
X158582664Y-68656206D01*
X158467455Y-68742452D01*
X158467452Y-68742455D01*
X158381206Y-68857664D01*
X158381202Y-68857671D01*
X158337443Y-68974997D01*
X158295572Y-69030931D01*
X158230108Y-69055348D01*
X158161835Y-69040496D01*
X158133580Y-69019345D01*
X157139204Y-68024969D01*
X157105719Y-67963646D01*
X157106680Y-67906847D01*
X157108288Y-67900500D01*
X157151134Y-67731305D01*
X157155678Y-67676468D01*
X157170300Y-67500006D01*
X157170300Y-67499992D01*
X157151135Y-67268702D01*
X157151133Y-67268691D01*
X157094157Y-67043699D01*
X157000924Y-66831151D01*
X156873983Y-66636852D01*
X156873980Y-66636849D01*
X156873979Y-66636847D01*
X156716784Y-66466087D01*
X156716779Y-66466083D01*
X156716777Y-66466081D01*
X156533634Y-66323535D01*
X156533628Y-66323531D01*
X156329504Y-66213064D01*
X156329495Y-66213061D01*
X156109984Y-66137702D01*
X155919450Y-66105908D01*
X155881049Y-66099500D01*
X155648951Y-66099500D01*
X155610550Y-66105908D01*
X155420015Y-66137702D01*
X155200504Y-66213061D01*
X155200495Y-66213064D01*
X154996371Y-66323531D01*
X154996365Y-66323535D01*
X154813222Y-66466081D01*
X154813218Y-66466085D01*
X154804866Y-66475158D01*
X154744979Y-66511148D01*
X154675141Y-66509047D01*
X154617525Y-66469522D01*
X154597455Y-66434507D01*
X154568797Y-66357671D01*
X154568793Y-66357664D01*
X154482547Y-66242455D01*
X154482544Y-66242452D01*
X154367335Y-66156206D01*
X154367328Y-66156202D01*
X154232482Y-66105908D01*
X154232483Y-66105908D01*
X154172883Y-66099501D01*
X154172881Y-66099500D01*
X154172873Y-66099500D01*
X154172865Y-66099500D01*
X152725098Y-66099500D01*
X152658059Y-66079815D01*
X152637417Y-66063181D01*
X152593717Y-66019481D01*
X152593716Y-66019480D01*
X152506904Y-65969360D01*
X152506904Y-65969359D01*
X152506900Y-65969358D01*
X152456785Y-65940423D01*
X152304057Y-65899499D01*
X152145943Y-65899499D01*
X152138347Y-65899499D01*
X152138331Y-65899500D01*
X150611801Y-65899500D01*
X150544762Y-65879815D01*
X150502747Y-65834519D01*
X150500924Y-65831151D01*
X150373983Y-65636852D01*
X150373980Y-65636849D01*
X150373979Y-65636847D01*
X150216784Y-65466087D01*
X150216779Y-65466083D01*
X150216777Y-65466081D01*
X150033634Y-65323535D01*
X150033628Y-65323531D01*
X149829504Y-65213064D01*
X149829495Y-65213061D01*
X149609984Y-65137702D01*
X149419450Y-65105908D01*
X149381049Y-65099500D01*
X149148951Y-65099500D01*
X149110550Y-65105908D01*
X148920015Y-65137702D01*
X148700504Y-65213061D01*
X148700495Y-65213064D01*
X148496371Y-65323531D01*
X148496365Y-65323535D01*
X148313222Y-65466081D01*
X148313218Y-65466085D01*
X148304866Y-65475158D01*
X148244979Y-65511148D01*
X148175141Y-65509047D01*
X148117525Y-65469522D01*
X148097455Y-65434507D01*
X148068797Y-65357671D01*
X148068793Y-65357664D01*
X147982547Y-65242455D01*
X147982544Y-65242452D01*
X147867335Y-65156206D01*
X147867328Y-65156202D01*
X147732482Y-65105908D01*
X147732483Y-65105908D01*
X147672883Y-65099501D01*
X147672881Y-65099500D01*
X147672873Y-65099500D01*
X147672864Y-65099500D01*
X145777129Y-65099500D01*
X145777123Y-65099501D01*
X145717516Y-65105908D01*
X145582671Y-65156202D01*
X145582664Y-65156206D01*
X145467455Y-65242452D01*
X145467452Y-65242455D01*
X145381206Y-65357664D01*
X145381202Y-65357671D01*
X145330908Y-65492517D01*
X145324501Y-65552116D01*
X145324500Y-65552135D01*
X145324500Y-66999902D01*
X145304815Y-67066941D01*
X145288181Y-67087583D01*
X144512584Y-67863181D01*
X144451261Y-67896666D01*
X144424903Y-67899500D01*
X144111801Y-67899500D01*
X144044762Y-67879815D01*
X144002747Y-67834519D01*
X144000924Y-67831151D01*
X143873983Y-67636852D01*
X143873980Y-67636849D01*
X143873979Y-67636847D01*
X143716784Y-67466087D01*
X143716779Y-67466083D01*
X143716777Y-67466081D01*
X143533634Y-67323535D01*
X143533628Y-67323531D01*
X143329504Y-67213064D01*
X143329495Y-67213061D01*
X143109984Y-67137702D01*
X142919450Y-67105908D01*
X142881049Y-67099500D01*
X142648951Y-67099500D01*
X142610550Y-67105908D01*
X142420015Y-67137702D01*
X142200504Y-67213061D01*
X142200495Y-67213064D01*
X141996371Y-67323531D01*
X141996365Y-67323535D01*
X141813222Y-67466081D01*
X141813218Y-67466085D01*
X141804866Y-67475158D01*
X141744979Y-67511148D01*
X141675141Y-67509047D01*
X141617525Y-67469522D01*
X141597455Y-67434507D01*
X141568797Y-67357671D01*
X141568793Y-67357664D01*
X141482547Y-67242455D01*
X141482544Y-67242452D01*
X141367335Y-67156206D01*
X141367328Y-67156202D01*
X141232482Y-67105908D01*
X141232483Y-67105908D01*
X141172883Y-67099501D01*
X141172881Y-67099500D01*
X141172873Y-67099500D01*
X141172864Y-67099500D01*
X139277129Y-67099500D01*
X139277123Y-67099501D01*
X139217516Y-67105908D01*
X139082671Y-67156202D01*
X139082664Y-67156206D01*
X138967455Y-67242452D01*
X138967452Y-67242455D01*
X138881206Y-67357664D01*
X138881202Y-67357671D01*
X138830908Y-67492517D01*
X138824501Y-67552116D01*
X138824500Y-67552135D01*
X138824500Y-68999902D01*
X138804815Y-69066941D01*
X138788181Y-69087583D01*
X138012584Y-69863181D01*
X137951261Y-69896666D01*
X137924903Y-69899500D01*
X137611801Y-69899500D01*
X137544762Y-69879815D01*
X137502747Y-69834519D01*
X137500924Y-69831151D01*
X137373983Y-69636852D01*
X137373980Y-69636849D01*
X137373979Y-69636847D01*
X137216784Y-69466087D01*
X137216779Y-69466083D01*
X137216777Y-69466081D01*
X137033634Y-69323535D01*
X137033628Y-69323531D01*
X136829504Y-69213064D01*
X136829495Y-69213061D01*
X136609984Y-69137702D01*
X136419450Y-69105908D01*
X136381049Y-69099500D01*
X136148951Y-69099500D01*
X136110550Y-69105908D01*
X135920015Y-69137702D01*
X135700504Y-69213061D01*
X135700495Y-69213064D01*
X135496371Y-69323531D01*
X135496365Y-69323535D01*
X135313222Y-69466081D01*
X135313218Y-69466085D01*
X135304866Y-69475158D01*
X135244979Y-69511148D01*
X135175141Y-69509047D01*
X135117525Y-69469522D01*
X135097455Y-69434507D01*
X135068797Y-69357671D01*
X135068793Y-69357664D01*
X134982547Y-69242455D01*
X134982544Y-69242452D01*
X134867335Y-69156206D01*
X134867328Y-69156202D01*
X134732482Y-69105908D01*
X134732483Y-69105908D01*
X134672883Y-69099501D01*
X134672881Y-69099500D01*
X134672873Y-69099500D01*
X134672864Y-69099500D01*
X132777129Y-69099500D01*
X132777123Y-69099501D01*
X132717516Y-69105908D01*
X132582671Y-69156202D01*
X132582664Y-69156206D01*
X132467455Y-69242452D01*
X132467452Y-69242455D01*
X132381206Y-69357664D01*
X132381202Y-69357671D01*
X132330908Y-69492517D01*
X132324501Y-69552116D01*
X132324500Y-69552135D01*
X132324500Y-71447870D01*
X132324501Y-71447876D01*
X132330908Y-71507483D01*
X132381202Y-71642328D01*
X132381206Y-71642335D01*
X132467452Y-71757544D01*
X132467455Y-71757547D01*
X132582664Y-71843793D01*
X132582671Y-71843797D01*
X132627618Y-71860561D01*
X132717517Y-71894091D01*
X132777127Y-71900500D01*
X133000500Y-71900499D01*
X133067539Y-71920183D01*
X133113294Y-71972987D01*
X133124500Y-72024499D01*
X133124500Y-72974903D01*
X133104815Y-73041942D01*
X133088181Y-73062584D01*
X132787584Y-73363181D01*
X132726261Y-73396666D01*
X132699903Y-73399500D01*
X131111801Y-73399500D01*
X131044762Y-73379815D01*
X131002747Y-73334519D01*
X131000924Y-73331151D01*
X130873983Y-73136852D01*
X130873980Y-73136849D01*
X130873979Y-73136847D01*
X130716784Y-72966087D01*
X130716779Y-72966083D01*
X130716777Y-72966081D01*
X130533634Y-72823535D01*
X130533628Y-72823531D01*
X130329504Y-72713064D01*
X130329495Y-72713061D01*
X130109984Y-72637702D01*
X129919450Y-72605908D01*
X129881049Y-72599500D01*
X129648951Y-72599500D01*
X129610550Y-72605908D01*
X129420015Y-72637702D01*
X129200504Y-72713061D01*
X129200495Y-72713064D01*
X128996371Y-72823531D01*
X128996365Y-72823535D01*
X128813222Y-72966081D01*
X128813218Y-72966085D01*
X128813216Y-72966086D01*
X128813216Y-72966087D01*
X128805101Y-72974903D01*
X128804866Y-72975158D01*
X128744979Y-73011148D01*
X128675141Y-73009047D01*
X128617525Y-72969522D01*
X128597455Y-72934507D01*
X128568797Y-72857671D01*
X128568793Y-72857664D01*
X128482547Y-72742455D01*
X128482544Y-72742452D01*
X128367335Y-72656206D01*
X128367328Y-72656202D01*
X128232482Y-72605908D01*
X128232483Y-72605908D01*
X128172883Y-72599501D01*
X128172881Y-72599500D01*
X128172873Y-72599500D01*
X128172864Y-72599500D01*
X126277129Y-72599500D01*
X126277123Y-72599501D01*
X126217516Y-72605908D01*
X126082671Y-72656202D01*
X126082664Y-72656206D01*
X125967455Y-72742452D01*
X125967452Y-72742455D01*
X125881206Y-72857664D01*
X125881202Y-72857671D01*
X125830908Y-72992517D01*
X125824501Y-73052116D01*
X125824500Y-73052135D01*
X125824500Y-73275500D01*
X125804815Y-73342539D01*
X125752011Y-73388294D01*
X125700500Y-73399500D01*
X125586669Y-73399500D01*
X125586653Y-73399499D01*
X125579057Y-73399499D01*
X125420943Y-73399499D01*
X125313587Y-73428265D01*
X125268210Y-73440424D01*
X125268209Y-73440425D01*
X125218096Y-73469359D01*
X125218095Y-73469360D01*
X125174689Y-73494420D01*
X125131285Y-73519479D01*
X125131282Y-73519481D01*
X124284481Y-74366282D01*
X124284475Y-74366290D01*
X124236014Y-74450229D01*
X124236014Y-74450230D01*
X124205423Y-74503214D01*
X124205423Y-74503215D01*
X124164499Y-74655943D01*
X124164499Y-74655945D01*
X124164499Y-74824046D01*
X124164500Y-74824059D01*
X124164500Y-79158655D01*
X124144815Y-79225694D01*
X124099519Y-79267709D01*
X123996376Y-79323528D01*
X123996365Y-79323535D01*
X123813222Y-79466081D01*
X123813218Y-79466085D01*
X123804866Y-79475158D01*
X123744979Y-79511148D01*
X123675141Y-79509047D01*
X123617525Y-79469522D01*
X123597455Y-79434507D01*
X123568797Y-79357671D01*
X123568793Y-79357664D01*
X123482547Y-79242455D01*
X123482544Y-79242452D01*
X123367335Y-79156206D01*
X123367328Y-79156202D01*
X123232482Y-79105908D01*
X123232483Y-79105908D01*
X123172883Y-79099501D01*
X123172881Y-79099500D01*
X123172873Y-79099500D01*
X123172864Y-79099500D01*
X121277129Y-79099500D01*
X121277123Y-79099501D01*
X121217516Y-79105908D01*
X121082671Y-79156202D01*
X121082664Y-79156206D01*
X120967455Y-79242452D01*
X120967452Y-79242455D01*
X120881206Y-79357664D01*
X120881202Y-79357671D01*
X120830908Y-79492517D01*
X120824501Y-79552116D01*
X120824500Y-79552135D01*
X120824500Y-80999901D01*
X120804815Y-81066940D01*
X120788181Y-81087582D01*
X120396286Y-81479478D01*
X120284481Y-81591282D01*
X120284477Y-81591287D01*
X120235301Y-81676464D01*
X120235298Y-81676470D01*
X120205423Y-81728215D01*
X120164499Y-81880943D01*
X120164499Y-81880945D01*
X120164499Y-82049046D01*
X120164500Y-82049059D01*
X120164500Y-85658655D01*
X120144815Y-85725694D01*
X120099519Y-85767709D01*
X119996376Y-85823528D01*
X119996365Y-85823535D01*
X119813222Y-85966081D01*
X119813218Y-85966085D01*
X119804866Y-85975158D01*
X119744979Y-86011148D01*
X119675141Y-86009047D01*
X119617525Y-85969522D01*
X119597455Y-85934507D01*
X119568797Y-85857671D01*
X119568793Y-85857664D01*
X119482547Y-85742455D01*
X119482544Y-85742452D01*
X119367335Y-85656206D01*
X119367328Y-85656202D01*
X119232482Y-85605908D01*
X119232483Y-85605908D01*
X119172883Y-85599501D01*
X119172881Y-85599500D01*
X119172873Y-85599500D01*
X119172864Y-85599500D01*
X117277129Y-85599500D01*
X117277123Y-85599501D01*
X117217516Y-85605908D01*
X117082671Y-85656202D01*
X117082664Y-85656206D01*
X116967455Y-85742452D01*
X116967452Y-85742455D01*
X116881206Y-85857664D01*
X116881202Y-85857671D01*
X116830908Y-85992517D01*
X116824501Y-86052116D01*
X116824500Y-86052135D01*
X116824500Y-87947870D01*
X116824501Y-87947876D01*
X116830908Y-88007483D01*
X116881202Y-88142328D01*
X116881206Y-88142335D01*
X116967452Y-88257544D01*
X116967455Y-88257547D01*
X117082664Y-88343793D01*
X117082671Y-88343797D01*
X117127618Y-88360561D01*
X117217517Y-88394091D01*
X117277127Y-88400500D01*
X117500500Y-88400499D01*
X117567539Y-88420183D01*
X117613294Y-88472987D01*
X117624500Y-88524499D01*
X117624500Y-90138330D01*
X117624499Y-90138348D01*
X117624499Y-90304054D01*
X117624498Y-90304054D01*
X117665424Y-90456789D01*
X117665425Y-90456790D01*
X117686455Y-90493214D01*
X117686456Y-90493216D01*
X117744475Y-90593709D01*
X117744481Y-90593717D01*
X117863349Y-90712585D01*
X117863355Y-90712590D01*
X118363181Y-91212416D01*
X118396666Y-91273739D01*
X118399500Y-91300097D01*
X118399500Y-92158655D01*
X118379815Y-92225694D01*
X118334519Y-92267709D01*
X118231376Y-92323528D01*
X118231365Y-92323535D01*
X118048222Y-92466081D01*
X118048218Y-92466085D01*
X118039866Y-92475158D01*
X117979979Y-92511148D01*
X117910141Y-92509047D01*
X117852525Y-92469522D01*
X117832455Y-92434507D01*
X117803797Y-92357671D01*
X117803793Y-92357664D01*
X117717547Y-92242455D01*
X117717544Y-92242452D01*
X117602335Y-92156206D01*
X117602328Y-92156202D01*
X117467482Y-92105908D01*
X117467483Y-92105908D01*
X117407883Y-92099501D01*
X117407881Y-92099500D01*
X117407873Y-92099500D01*
X117407864Y-92099500D01*
X115512129Y-92099500D01*
X115512123Y-92099501D01*
X115452516Y-92105908D01*
X115317671Y-92156202D01*
X115317664Y-92156206D01*
X115202455Y-92242452D01*
X115202452Y-92242455D01*
X115116206Y-92357664D01*
X115116202Y-92357671D01*
X115065908Y-92492517D01*
X115059501Y-92552116D01*
X115059500Y-92552135D01*
X115059500Y-94447870D01*
X115059501Y-94447876D01*
X115065908Y-94507483D01*
X115116202Y-94642328D01*
X115116206Y-94642335D01*
X115202452Y-94757544D01*
X115202455Y-94757547D01*
X115317664Y-94843793D01*
X115317671Y-94843797D01*
X115362618Y-94860561D01*
X115452517Y-94894091D01*
X115512127Y-94900500D01*
X115735500Y-94900499D01*
X115802539Y-94920183D01*
X115848294Y-94972987D01*
X115859500Y-95024499D01*
X115859500Y-97373330D01*
X115859499Y-97373348D01*
X115859499Y-97539054D01*
X115859498Y-97539054D01*
X115900423Y-97691785D01*
X115908297Y-97705423D01*
X115979477Y-97828712D01*
X115979481Y-97828717D01*
X116098349Y-97947585D01*
X116098355Y-97947590D01*
X116515139Y-98364374D01*
X116515160Y-98364397D01*
X116538582Y-98387819D01*
X116572067Y-98449142D01*
X116567083Y-98518834D01*
X116525211Y-98574767D01*
X116459747Y-98599184D01*
X116450901Y-98599500D01*
X115277129Y-98599500D01*
X115277123Y-98599501D01*
X115217516Y-98605908D01*
X115082671Y-98656202D01*
X115082664Y-98656206D01*
X114967455Y-98742452D01*
X114967452Y-98742455D01*
X114881206Y-98857664D01*
X114881202Y-98857671D01*
X114830908Y-98992517D01*
X114824501Y-99052116D01*
X114824500Y-99052135D01*
X114824500Y-100947870D01*
X114824501Y-100947876D01*
X114830908Y-101007483D01*
X114881202Y-101142328D01*
X114881206Y-101142335D01*
X114967452Y-101257544D01*
X114967455Y-101257547D01*
X115082664Y-101343793D01*
X115082671Y-101343797D01*
X115127618Y-101360561D01*
X115217517Y-101394091D01*
X115277127Y-101400500D01*
X115500500Y-101400499D01*
X115567539Y-101420183D01*
X115613294Y-101472987D01*
X115624500Y-101524499D01*
X115624500Y-103638330D01*
X115624499Y-103638348D01*
X115624499Y-103804054D01*
X115624498Y-103804054D01*
X115665423Y-103956785D01*
X115679126Y-103980519D01*
X115744477Y-104093712D01*
X115744481Y-104093717D01*
X115863349Y-104212585D01*
X115863355Y-104212590D01*
X116538583Y-104887819D01*
X116572068Y-104949142D01*
X116567084Y-105018834D01*
X116525212Y-105074767D01*
X116459748Y-105099184D01*
X116450902Y-105099500D01*
X115277129Y-105099500D01*
X115277123Y-105099501D01*
X115217516Y-105105908D01*
X115082671Y-105156202D01*
X115082664Y-105156206D01*
X114967455Y-105242452D01*
X114967452Y-105242455D01*
X114881206Y-105357664D01*
X114881202Y-105357671D01*
X114830908Y-105492517D01*
X114824501Y-105552116D01*
X114824500Y-105552135D01*
X114824500Y-107447870D01*
X114824501Y-107447876D01*
X114830908Y-107507483D01*
X114881202Y-107642328D01*
X114881206Y-107642335D01*
X114967452Y-107757544D01*
X114967455Y-107757547D01*
X115082664Y-107843793D01*
X115082671Y-107843797D01*
X115127618Y-107860561D01*
X115217517Y-107894091D01*
X115277127Y-107900500D01*
X115500500Y-107900499D01*
X115567539Y-107920183D01*
X115613294Y-107972987D01*
X115624500Y-108024499D01*
X115624500Y-109638330D01*
X115624499Y-109638348D01*
X115624499Y-109804054D01*
X115624498Y-109804054D01*
X115665423Y-109956785D01*
X115694358Y-110006900D01*
X115694359Y-110006904D01*
X115694360Y-110006904D01*
X115744479Y-110093714D01*
X115744481Y-110093717D01*
X115863349Y-110212585D01*
X115863354Y-110212589D01*
X116631284Y-110980520D01*
X116631286Y-110980521D01*
X116631290Y-110980524D01*
X116768209Y-111059573D01*
X116768216Y-111059577D01*
X116920943Y-111100501D01*
X116920945Y-111100501D01*
X117086654Y-111100501D01*
X117086670Y-111100500D01*
X119699903Y-111100500D01*
X119766942Y-111120185D01*
X119787584Y-111136819D01*
X119903181Y-111252416D01*
X119936666Y-111313739D01*
X119939500Y-111340097D01*
X119939500Y-111658655D01*
X119919815Y-111725694D01*
X119874519Y-111767709D01*
X119771376Y-111823528D01*
X119771365Y-111823535D01*
X119588222Y-111966081D01*
X119588218Y-111966085D01*
X119579866Y-111975158D01*
X119519979Y-112011148D01*
X119450141Y-112009047D01*
X119392525Y-111969522D01*
X119372455Y-111934507D01*
X119343797Y-111857671D01*
X119343793Y-111857664D01*
X119257547Y-111742455D01*
X119257544Y-111742452D01*
X119142335Y-111656206D01*
X119142328Y-111656202D01*
X119007482Y-111605908D01*
X119007483Y-111605908D01*
X118947883Y-111599501D01*
X118947881Y-111599500D01*
X118947873Y-111599500D01*
X118947864Y-111599500D01*
X117052129Y-111599500D01*
X117052123Y-111599501D01*
X116992516Y-111605908D01*
X116857671Y-111656202D01*
X116857664Y-111656206D01*
X116742455Y-111742452D01*
X116742452Y-111742455D01*
X116656206Y-111857664D01*
X116656202Y-111857671D01*
X116605908Y-111992517D01*
X116599501Y-112052116D01*
X116599500Y-112052135D01*
X116599500Y-113947870D01*
X116599501Y-113947876D01*
X116605908Y-114007483D01*
X116656202Y-114142328D01*
X116656206Y-114142335D01*
X116742452Y-114257544D01*
X116742455Y-114257547D01*
X116857664Y-114343793D01*
X116857671Y-114343797D01*
X116902618Y-114360561D01*
X116992517Y-114394091D01*
X117052127Y-114400500D01*
X117275500Y-114400499D01*
X117342539Y-114420183D01*
X117388294Y-114472987D01*
X117399500Y-114524499D01*
X117399500Y-115913330D01*
X117399499Y-115913348D01*
X117399499Y-116079054D01*
X117399498Y-116079054D01*
X117440423Y-116231785D01*
X117469358Y-116281900D01*
X117469359Y-116281904D01*
X117469360Y-116281904D01*
X117516284Y-116363181D01*
X117519479Y-116368714D01*
X117519481Y-116368717D01*
X117638349Y-116487585D01*
X117638354Y-116487589D01*
X118631284Y-117480520D01*
X118631286Y-117480521D01*
X118631290Y-117480524D01*
X118740714Y-117543699D01*
X118768216Y-117559577D01*
X118920943Y-117600501D01*
X118920945Y-117600501D01*
X119086654Y-117600501D01*
X119086670Y-117600500D01*
X124199903Y-117600500D01*
X124266942Y-117620185D01*
X124287584Y-117636819D01*
X124403181Y-117752416D01*
X124436666Y-117813739D01*
X124439500Y-117840097D01*
X124439500Y-118158655D01*
X124419815Y-118225694D01*
X124374519Y-118267709D01*
X124271376Y-118323528D01*
X124271365Y-118323535D01*
X124088222Y-118466081D01*
X124088218Y-118466085D01*
X124079866Y-118475158D01*
X124019979Y-118511148D01*
X123950141Y-118509047D01*
X123892525Y-118469522D01*
X123872455Y-118434507D01*
X123843797Y-118357671D01*
X123843793Y-118357664D01*
X123757547Y-118242455D01*
X123757544Y-118242452D01*
X123642335Y-118156206D01*
X123642328Y-118156202D01*
X123507482Y-118105908D01*
X123507483Y-118105908D01*
X123447883Y-118099501D01*
X123447881Y-118099500D01*
X123447873Y-118099500D01*
X123447864Y-118099500D01*
X121552129Y-118099500D01*
X121552123Y-118099501D01*
X121492516Y-118105908D01*
X121357671Y-118156202D01*
X121357664Y-118156206D01*
X121242455Y-118242452D01*
X121242452Y-118242455D01*
X121156206Y-118357664D01*
X121156202Y-118357671D01*
X121105908Y-118492517D01*
X121099501Y-118552116D01*
X121099500Y-118552135D01*
X121099500Y-120447870D01*
X121099501Y-120447876D01*
X121105908Y-120507483D01*
X121156202Y-120642328D01*
X121156206Y-120642335D01*
X121242452Y-120757544D01*
X121242455Y-120757547D01*
X121357664Y-120843793D01*
X121357671Y-120843797D01*
X121402618Y-120860561D01*
X121492517Y-120894091D01*
X121552127Y-120900500D01*
X121775500Y-120900499D01*
X121842539Y-120920183D01*
X121888294Y-120972987D01*
X121899500Y-121024499D01*
X121899500Y-122413330D01*
X121899499Y-122413348D01*
X121899499Y-122579054D01*
X121899498Y-122579054D01*
X121899499Y-122579057D01*
X121940423Y-122731785D01*
X121940424Y-122731787D01*
X121940423Y-122731787D01*
X121946583Y-122742455D01*
X121946584Y-122742456D01*
X122019477Y-122868712D01*
X122019479Y-122868715D01*
X122019480Y-122868716D01*
X122131284Y-122980520D01*
X122131285Y-122980521D01*
X122631284Y-123480520D01*
X122631286Y-123480521D01*
X122631290Y-123480524D01*
X122736498Y-123541265D01*
X122768216Y-123559577D01*
X122920943Y-123600501D01*
X122920945Y-123600501D01*
X123086654Y-123600501D01*
X123086670Y-123600500D01*
X128540500Y-123600500D01*
X128607539Y-123620185D01*
X128653294Y-123672989D01*
X128664500Y-123724500D01*
X128664500Y-124658655D01*
X128644815Y-124725694D01*
X128599519Y-124767709D01*
X128496376Y-124823528D01*
X128496365Y-124823535D01*
X128313222Y-124966081D01*
X128313218Y-124966085D01*
X128304866Y-124975158D01*
X128244979Y-125011148D01*
X128175141Y-125009047D01*
X128117525Y-124969522D01*
X128097455Y-124934507D01*
X128068797Y-124857671D01*
X128068793Y-124857664D01*
X127982547Y-124742455D01*
X127982544Y-124742452D01*
X127867335Y-124656206D01*
X127867328Y-124656202D01*
X127732482Y-124605908D01*
X127732483Y-124605908D01*
X127672883Y-124599501D01*
X127672881Y-124599500D01*
X127672873Y-124599500D01*
X127672864Y-124599500D01*
X125777129Y-124599500D01*
X125777123Y-124599501D01*
X125717516Y-124605908D01*
X125582671Y-124656202D01*
X125582664Y-124656206D01*
X125467455Y-124742452D01*
X125467452Y-124742455D01*
X125381206Y-124857664D01*
X125381202Y-124857671D01*
X125330908Y-124992517D01*
X125324501Y-125052116D01*
X125324500Y-125052135D01*
X125324500Y-126947870D01*
X125324501Y-126947876D01*
X125330908Y-127007483D01*
X125381202Y-127142328D01*
X125381206Y-127142335D01*
X125467452Y-127257544D01*
X125467455Y-127257547D01*
X125582664Y-127343793D01*
X125582671Y-127343797D01*
X125627618Y-127360561D01*
X125717517Y-127394091D01*
X125777127Y-127400500D01*
X126499902Y-127400499D01*
X126566941Y-127420183D01*
X126587583Y-127436818D01*
X129063181Y-129912416D01*
X129096666Y-129973739D01*
X129099500Y-130000097D01*
X129099500Y-130900772D01*
X129079815Y-130967811D01*
X129027011Y-131013566D01*
X128957853Y-131023510D01*
X128904932Y-131002733D01*
X128157151Y-130485187D01*
X128153852Y-130482824D01*
X128041503Y-130399500D01*
X127171374Y-129754168D01*
X127168160Y-129751702D01*
X127119476Y-129713064D01*
X126300630Y-129063181D01*
X126210047Y-128991289D01*
X126206911Y-128988714D01*
X126025762Y-128835021D01*
X126024329Y-128833788D01*
X125970783Y-128786935D01*
X124635935Y-127618943D01*
X124634487Y-127617653D01*
X124483966Y-127481229D01*
X124475080Y-127472311D01*
X122121898Y-124857664D01*
X120015901Y-122517667D01*
X120008473Y-122508584D01*
X119994687Y-122489996D01*
X119987960Y-122479934D01*
X116545471Y-116742452D01*
X116042282Y-115903803D01*
X116036516Y-115893023D01*
X115892106Y-115587695D01*
X115840905Y-115479440D01*
X115839271Y-115475831D01*
X115352747Y-114353556D01*
X115351196Y-114349811D01*
X114901647Y-113212203D01*
X114900240Y-113208466D01*
X114488164Y-112056792D01*
X114486865Y-112052966D01*
X114486596Y-112052128D01*
X114112683Y-110888396D01*
X114111512Y-110884536D01*
X114089717Y-110808215D01*
X113775639Y-109708368D01*
X113774594Y-109704465D01*
X113726530Y-109512583D01*
X113477379Y-108517921D01*
X113476465Y-108513995D01*
X113407849Y-108196299D01*
X113218241Y-107318397D01*
X113217455Y-107314444D01*
X113190963Y-107168848D01*
X112998476Y-106110980D01*
X112997832Y-106107075D01*
X112818345Y-104897069D01*
X112817828Y-104893142D01*
X112678025Y-103677904D01*
X112677629Y-103673868D01*
X112658496Y-103440521D01*
X112577672Y-102454819D01*
X112577408Y-102450792D01*
X112561610Y-102129216D01*
X112517387Y-101229035D01*
X112517256Y-101225005D01*
X112515903Y-101142335D01*
X112500017Y-100171477D01*
X112500000Y-100169448D01*
X112500000Y-99830550D01*
X112500017Y-99828521D01*
X112512721Y-99052135D01*
X112517256Y-98774966D01*
X112517388Y-98770939D01*
X112518788Y-98742455D01*
X112577409Y-97549182D01*
X112577674Y-97545158D01*
X112578175Y-97539057D01*
X112677629Y-96326121D01*
X112678026Y-96322092D01*
X112680306Y-96302275D01*
X112817829Y-95106849D01*
X112818344Y-95102938D01*
X112997833Y-93892914D01*
X112998475Y-93889029D01*
X113116029Y-93242973D01*
X113118388Y-93232575D01*
X113999101Y-90003294D01*
X114001082Y-89996752D01*
X115777013Y-84668959D01*
X115780859Y-84658907D01*
X115839271Y-84524168D01*
X115840905Y-84520559D01*
X116326196Y-83494498D01*
X116333967Y-83480494D01*
X120495863Y-77006434D01*
X120504898Y-76994121D01*
X122996409Y-74004308D01*
X123003967Y-73996032D01*
X124452627Y-72547372D01*
X124456950Y-72543256D01*
X125271215Y-71805249D01*
X125274205Y-71802626D01*
X126206956Y-71011247D01*
X126210031Y-71008722D01*
X127168202Y-70248264D01*
X127171335Y-70245860D01*
X128153893Y-69517145D01*
X128157108Y-69514842D01*
X128907779Y-68995295D01*
X128912543Y-68992160D01*
X130497342Y-68001660D01*
X130502728Y-67998484D01*
X133614419Y-66269766D01*
X133621525Y-66266117D01*
X134520582Y-65840895D01*
X134524145Y-65839281D01*
X135646465Y-65352738D01*
X135650161Y-65351206D01*
X136745536Y-64918346D01*
X136751808Y-64916063D01*
X139461878Y-64012707D01*
X139466875Y-64011161D01*
X140291647Y-63775635D01*
X140295503Y-63774602D01*
X141482092Y-63477376D01*
X141485963Y-63476474D01*
X142681613Y-63218239D01*
X142685517Y-63217462D01*
X143889029Y-62998475D01*
X143892914Y-62997833D01*
X145102938Y-62818344D01*
X145106849Y-62817829D01*
X146322101Y-62678025D01*
X146326121Y-62677629D01*
X147545184Y-62577672D01*
X147549182Y-62577409D01*
X148770966Y-62517387D01*
X148774966Y-62517256D01*
X149828521Y-62500016D01*
X149830550Y-62500000D01*
X150169450Y-62500000D01*
X150171478Y-62500016D01*
G37*
%TD.AperFunction*%
%TD*%
%TA.AperFunction,NonConductor*%
G36*
X182988762Y-92120185D02*
G01*
X183034517Y-92172989D01*
X183044461Y-92242147D01*
X183015436Y-92305703D01*
X182997885Y-92322354D01*
X182813216Y-92466086D01*
X182804866Y-92475158D01*
X182744979Y-92511148D01*
X182675141Y-92509047D01*
X182617525Y-92469522D01*
X182597455Y-92434507D01*
X182568797Y-92357671D01*
X182568795Y-92357668D01*
X182543243Y-92323535D01*
X182524734Y-92298810D01*
X182500317Y-92233348D01*
X182515168Y-92165075D01*
X182564573Y-92115669D01*
X182624001Y-92100500D01*
X182921723Y-92100500D01*
X182988762Y-92120185D01*
G37*
%TD.AperFunction*%
%TA.AperFunction,NonConductor*%
G36*
X117988762Y-98620185D02*
G01*
X118034517Y-98672989D01*
X118044461Y-98742147D01*
X118015436Y-98805703D01*
X117997885Y-98822354D01*
X117813216Y-98966086D01*
X117804866Y-98975158D01*
X117744979Y-99011148D01*
X117675141Y-99009047D01*
X117617525Y-98969522D01*
X117597455Y-98934507D01*
X117568797Y-98857671D01*
X117568795Y-98857668D01*
X117543243Y-98823535D01*
X117524734Y-98798810D01*
X117500317Y-98733348D01*
X117515168Y-98665075D01*
X117564573Y-98615669D01*
X117624001Y-98600500D01*
X117921723Y-98600500D01*
X117988762Y-98620185D01*
G37*
%TD.AperFunction*%
%TA.AperFunction,NonConductor*%
G36*
X117988762Y-105120185D02*
G01*
X118034517Y-105172989D01*
X118044461Y-105242147D01*
X118015436Y-105305703D01*
X117997885Y-105322354D01*
X117813216Y-105466086D01*
X117804866Y-105475158D01*
X117744979Y-105511148D01*
X117675141Y-105509047D01*
X117617525Y-105469522D01*
X117597455Y-105434507D01*
X117568797Y-105357671D01*
X117568795Y-105357668D01*
X117543243Y-105323535D01*
X117524734Y-105298810D01*
X117500317Y-105233348D01*
X117515168Y-105165075D01*
X117564573Y-105115669D01*
X117624001Y-105100500D01*
X117921723Y-105100500D01*
X117988762Y-105120185D01*
G37*
%TD.AperFunction*%
M02*
