%TF.GenerationSoftware,KiCad,Pcbnew,8.0.3*%
%TF.CreationDate,2026-01-26T15:52:45+01:00*%
%TF.ProjectId,ringLED,72696e67-4c45-4442-9e6b-696361645f70,rev?*%
%TF.SameCoordinates,Original*%
%TF.FileFunction,Soldermask,Top*%
%TF.FilePolarity,Negative*%
%FSLAX46Y46*%
G04 Gerber Fmt 4.6, Leading zero omitted, Abs format (unit mm)*
G04 Created by KiCad (PCBNEW 8.0.3) date 2026-01-26 15:52:45*
%MOMM*%
%LPD*%
G01*
G04 APERTURE LIST*
%ADD10R,1.800000X1.800000*%
%ADD11C,1.800000*%
G04 APERTURE END LIST*
D10*
%TO.C,U27*%
X172725000Y-124000000D03*
D11*
X175265000Y-124000000D03*
%TD*%
D10*
%TO.C,U9*%
X127225000Y-74000000D03*
D11*
X129765000Y-74000000D03*
%TD*%
D10*
%TO.C,U4*%
X116225000Y-106500000D03*
D11*
X118765000Y-106500000D03*
%TD*%
D10*
%TO.C,*%
X130500000Y-130500000D03*
%TD*%
%TO.C,U6*%
X116460000Y-93500000D03*
D11*
X119000000Y-93500000D03*
%TD*%
D10*
%TO.C,U29*%
X176225000Y-80500000D03*
D11*
X178765000Y-80500000D03*
%TD*%
D10*
%TO.C,*%
X135000000Y-132500000D03*
%TD*%
%TO.C,U3*%
X118000000Y-113000000D03*
D11*
X120540000Y-113000000D03*
%TD*%
%TO.C,*%
X172500000Y-71500000D03*
%TD*%
D10*
%TO.C,U14*%
X159725000Y-70000000D03*
D11*
X162265000Y-70000000D03*
%TD*%
D10*
%TO.C,U25*%
X180725000Y-113000000D03*
D11*
X183265000Y-113000000D03*
%TD*%
D10*
%TO.C,U24*%
X181960000Y-106500000D03*
D11*
X184500000Y-106500000D03*
%TD*%
D10*
%TO.C,U22*%
X181225000Y-93500000D03*
D11*
X183765000Y-93500000D03*
%TD*%
D10*
%TO.C,U18*%
X146725000Y-132500000D03*
D11*
X149265000Y-132500000D03*
%TD*%
D10*
%TO.C,U19*%
X153225000Y-133000000D03*
D11*
X155765000Y-133000000D03*
%TD*%
D10*
%TO.C,U11*%
X140225000Y-68500000D03*
D11*
X142765000Y-68500000D03*
%TD*%
D10*
%TO.C,U16*%
X133500000Y-127500000D03*
D11*
X136040000Y-127500000D03*
%TD*%
D10*
%TO.C,U30*%
X170460000Y-77000000D03*
D11*
X173000000Y-77000000D03*
%TD*%
D10*
%TO.C,U13*%
X153225000Y-67500000D03*
D11*
X155765000Y-67500000D03*
%TD*%
D10*
%TO.C,U21*%
X166225000Y-127500000D03*
D11*
X168765000Y-127500000D03*
%TD*%
D10*
%TO.C,U28*%
X178725000Y-87000000D03*
D11*
X181265000Y-87000000D03*
%TD*%
D10*
%TO.C,U26*%
X175960000Y-118000000D03*
D11*
X178500000Y-118000000D03*
%TD*%
D10*
%TO.C,U2*%
X122500000Y-119500000D03*
D11*
X125040000Y-119500000D03*
%TD*%
D10*
%TO.C,U5*%
X116225000Y-100000000D03*
D11*
X118765000Y-100000000D03*
%TD*%
D10*
%TO.C,U10*%
X133725000Y-70500000D03*
D11*
X136265000Y-70500000D03*
%TD*%
D10*
%TO.C,U23*%
X181460000Y-100000000D03*
D11*
X184000000Y-100000000D03*
%TD*%
D10*
%TO.C,U1*%
X126725000Y-126000000D03*
D11*
X129265000Y-126000000D03*
%TD*%
D10*
%TO.C,U17*%
X140225000Y-132000000D03*
D11*
X142765000Y-132000000D03*
%TD*%
D10*
%TO.C,U15*%
X166225000Y-71500000D03*
D11*
X168765000Y-71500000D03*
%TD*%
D10*
%TO.C,U20*%
X159725000Y-131000000D03*
D11*
X162265000Y-131000000D03*
%TD*%
D10*
%TO.C,U7*%
X122225000Y-80500000D03*
D11*
X124765000Y-80500000D03*
%TD*%
D10*
%TO.C,U12*%
X146725000Y-66500000D03*
D11*
X149265000Y-66500000D03*
%TD*%
D10*
%TO.C,U8*%
X118225000Y-87000000D03*
D11*
X120765000Y-87000000D03*
%TD*%
M02*
